<mxfile host="Electron" agent="Mozilla/5.0 (Macintosh; Intel Mac OS X 10_15_7) AppleWebKit/537.36 (KHTML, like Gecko) draw.io/27.0.9 Chrome/134.0.6998.205 Electron/35.4.0 Safari/537.36" version="27.0.9">
  <diagram name="Page-1" id="d66fe2ae-3e9f-cf2f-6d29-e24063ad5d60">
    <mxGraphModel dx="416" dy="305" grid="1" gridSize="10" guides="1" tooltips="1" connect="1" arrows="1" fold="1" page="1" pageScale="1" pageWidth="1100" pageHeight="850" background="none" math="0" shadow="0">
      <root>
        <mxCell id="0" />
        <mxCell id="1" parent="0" />
        <mxCell id="Q-0WuHjyBMRlQhgBISI1-42" value="" style="rounded=1;whiteSpace=wrap;html=1;fillColor=#FFEDED;strokeColor=#b85450;dashed=1;strokeWidth=2;shadow=1;" parent="1" vertex="1">
          <mxGeometry x="736.25" y="1100" width="137.5" height="118.75" as="geometry" />
        </mxCell>
        <mxCell id="Q-0WuHjyBMRlQhgBISI1-41" value="" style="rounded=1;whiteSpace=wrap;html=1;fillColor=#FFEDED;strokeColor=#b85450;dashed=1;strokeWidth=2;shadow=1;" parent="1" vertex="1">
          <mxGeometry x="324.25" y="1100" width="137.5" height="118.75" as="geometry" />
        </mxCell>
        <mxCell id="Q-0WuHjyBMRlQhgBISI1-40" value="" style="rounded=1;whiteSpace=wrap;html=1;fillColor=#FCF0CA;strokeColor=#d6b656;dashed=1;strokeWidth=2;shadow=1;" parent="1" vertex="1">
          <mxGeometry x="730" y="452.5" width="130" height="127.5" as="geometry" />
        </mxCell>
        <mxCell id="Q-0WuHjyBMRlQhgBISI1-39" value="" style="rounded=1;whiteSpace=wrap;html=1;fillColor=#CFCFCF;strokeColor=#666666;dashed=1;strokeWidth=2;glass=0;shadow=1;fontColor=#333333;" parent="1" vertex="1">
          <mxGeometry x="313" y="650" width="570" height="420" as="geometry" />
        </mxCell>
        <mxCell id="Q-0WuHjyBMRlQhgBISI1-37" value="" style="rounded=1;whiteSpace=wrap;html=1;fillColor=#FCF0CA;strokeColor=#d6b656;dashed=1;strokeWidth=2;shadow=1;" parent="1" vertex="1">
          <mxGeometry x="170" y="1050" width="130" height="100" as="geometry" />
        </mxCell>
        <mxCell id="sX_OkfuKljEF2dyJW8o2-208" value="" style="rounded=1;whiteSpace=wrap;html=1;fillColor=#FFEDED;strokeColor=#b85450;dashed=1;strokeWidth=2;shadow=1;" parent="1" vertex="1">
          <mxGeometry x="507.5" y="100" width="140" height="93" as="geometry" />
        </mxCell>
        <mxCell id="sX_OkfuKljEF2dyJW8o2-206" value="" style="rounded=1;whiteSpace=wrap;html=1;fillColor=#FFEDED;strokeColor=#b85450;dashed=1;strokeWidth=2;shadow=1;" parent="1" vertex="1">
          <mxGeometry x="510" y="530" width="137.5" height="82.5" as="geometry" />
        </mxCell>
        <mxCell id="sX_OkfuKljEF2dyJW8o2-42" value="" style="rounded=1;whiteSpace=wrap;html=1;fillColor=#FCF0CA;strokeColor=#d6b656;dashed=1;strokeWidth=2;shadow=1;" parent="1" vertex="1">
          <mxGeometry x="300" y="230" width="560" height="260" as="geometry" />
        </mxCell>
        <mxCell id="sX_OkfuKljEF2dyJW8o2-8" value="" style="sketch=0;points=[[0.5,0,0],[1,0.5,0],[0.5,1,0],[0,0.5,0],[0.145,0.145,0],[0.8555,0.145,0],[0.855,0.8555,0],[0.145,0.855,0]];verticalLabelPosition=bottom;html=1;verticalAlign=top;aspect=fixed;align=center;pointerEvents=1;shape=mxgraph.cisco19.rect;prIcon=router;fillColor=#d5e8d4;strokeColor=#82b366;" parent="1" vertex="1">
          <mxGeometry x="480" y="270" width="50" height="50" as="geometry" />
        </mxCell>
        <mxCell id="sX_OkfuKljEF2dyJW8o2-176" style="rounded=0;orthogonalLoop=1;jettySize=auto;html=1;exitX=0;exitY=0.5;exitDx=0;exitDy=0;exitPerimeter=0;entryX=1;entryY=0.5;entryDx=0;entryDy=0;entryPerimeter=0;endArrow=none;startFill=0;strokeWidth=2;" parent="1" source="sX_OkfuKljEF2dyJW8o2-132" target="sX_OkfuKljEF2dyJW8o2-175" edge="1">
          <mxGeometry relative="1" as="geometry">
            <mxPoint x="401" y="895" as="sourcePoint" />
            <mxPoint x="815" y="1005" as="targetPoint" />
          </mxGeometry>
        </mxCell>
        <mxCell id="sX_OkfuKljEF2dyJW8o2-9" value="" style="sketch=0;points=[[0.5,0,0],[1,0.5,0],[0.5,1,0],[0,0.5,0],[0.145,0.145,0],[0.8555,0.145,0],[0.855,0.8555,0],[0.145,0.855,0]];verticalLabelPosition=bottom;html=1;verticalAlign=top;aspect=fixed;align=center;pointerEvents=1;shape=mxgraph.cisco19.rect;prIcon=router;fillColor=#d5e8d4;strokeColor=#82b366;" parent="1" vertex="1">
          <mxGeometry x="640" y="270" width="50" height="50" as="geometry" />
        </mxCell>
        <mxCell id="sX_OkfuKljEF2dyJW8o2-10" value="" style="sketch=0;points=[[0.5,0,0],[1,0.5,0],[0.5,1,0],[0,0.5,0],[0.145,0.145,0],[0.8555,0.145,0],[0.855,0.8555,0],[0.145,0.855,0]];verticalLabelPosition=bottom;html=1;verticalAlign=top;aspect=fixed;align=center;pointerEvents=1;shape=mxgraph.cisco19.rect;prIcon=router;fillColor=#dae8fc;strokeColor=#6c8ebf;" parent="1" vertex="1">
          <mxGeometry x="800" y="270" width="50" height="50" as="geometry" />
        </mxCell>
        <mxCell id="sX_OkfuKljEF2dyJW8o2-13" value="" style="sketch=0;points=[[0.5,0,0],[1,0.5,0],[0.5,1,0],[0,0.5,0],[0.145,0.145,0],[0.8555,0.145,0],[0.855,0.8555,0],[0.145,0.855,0]];verticalLabelPosition=bottom;html=1;verticalAlign=top;aspect=fixed;align=center;pointerEvents=1;shape=mxgraph.cisco19.rect;prIcon=router;fillColor=#d5e8d4;strokeColor=#82b366;" parent="1" vertex="1">
          <mxGeometry x="480" y="400" width="50" height="50" as="geometry" />
        </mxCell>
        <mxCell id="sX_OkfuKljEF2dyJW8o2-14" value="" style="sketch=0;points=[[0.5,0,0],[1,0.5,0],[0.5,1,0],[0,0.5,0],[0.145,0.145,0],[0.8555,0.145,0],[0.855,0.8555,0],[0.145,0.855,0]];verticalLabelPosition=bottom;html=1;verticalAlign=top;aspect=fixed;align=center;pointerEvents=1;shape=mxgraph.cisco19.rect;prIcon=router;fillColor=#d5e8d4;strokeColor=#82b366;" parent="1" vertex="1">
          <mxGeometry x="640" y="400" width="50" height="50" as="geometry" />
        </mxCell>
        <mxCell id="sX_OkfuKljEF2dyJW8o2-17" style="rounded=0;orthogonalLoop=1;jettySize=auto;html=1;exitX=1;exitY=0.5;exitDx=0;exitDy=0;entryX=0;entryY=0.5;entryDx=0;entryDy=0;endArrow=none;startFill=0;strokeWidth=2;" parent="1" source="sX_OkfuKljEF2dyJW8o2-90" target="sX_OkfuKljEF2dyJW8o2-86" edge="1">
          <mxGeometry relative="1" as="geometry">
            <mxPoint x="369" y="277.5" as="sourcePoint" />
          </mxGeometry>
        </mxCell>
        <mxCell id="sX_OkfuKljEF2dyJW8o2-18" style="rounded=0;orthogonalLoop=1;jettySize=auto;html=1;exitX=1;exitY=0.5;exitDx=0;exitDy=0;entryX=0;entryY=0.5;entryDx=0;entryDy=0;endArrow=none;startFill=0;strokeWidth=2;" parent="1" source="sX_OkfuKljEF2dyJW8o2-89" target="sX_OkfuKljEF2dyJW8o2-88" edge="1">
          <mxGeometry relative="1" as="geometry">
            <mxPoint x="370" y="365" as="sourcePoint" />
          </mxGeometry>
        </mxCell>
        <mxCell id="sX_OkfuKljEF2dyJW8o2-20" style="rounded=0;orthogonalLoop=1;jettySize=auto;html=1;exitX=1;exitY=0.5;exitDx=0;exitDy=0;entryX=0;entryY=0.5;entryDx=0;entryDy=0;entryPerimeter=0;endArrow=none;startFill=0;strokeWidth=2;" parent="1" source="sX_OkfuKljEF2dyJW8o2-92" target="sX_OkfuKljEF2dyJW8o2-13" edge="1">
          <mxGeometry relative="1" as="geometry">
            <mxPoint x="370" y="365" as="sourcePoint" />
            <mxPoint x="497" y="323" as="targetPoint" />
          </mxGeometry>
        </mxCell>
        <mxCell id="sX_OkfuKljEF2dyJW8o2-21" style="rounded=0;orthogonalLoop=1;jettySize=auto;html=1;exitX=0.5;exitY=1;exitDx=0;exitDy=0;exitPerimeter=0;entryX=0.5;entryY=0;entryDx=0;entryDy=0;entryPerimeter=0;endArrow=none;startFill=0;strokeWidth=2;" parent="1" source="sX_OkfuKljEF2dyJW8o2-8" target="sX_OkfuKljEF2dyJW8o2-13" edge="1">
          <mxGeometry relative="1" as="geometry">
            <mxPoint x="450" y="450" as="sourcePoint" />
            <mxPoint x="560" y="510" as="targetPoint" />
          </mxGeometry>
        </mxCell>
        <mxCell id="sX_OkfuKljEF2dyJW8o2-24" style="rounded=0;orthogonalLoop=1;jettySize=auto;html=1;exitX=1;exitY=0.5;exitDx=0;exitDy=0;entryX=0;entryY=0.25;entryDx=0;entryDy=0;endArrow=none;startFill=0;strokeWidth=2;" parent="1" source="sX_OkfuKljEF2dyJW8o2-91" target="sX_OkfuKljEF2dyJW8o2-196" edge="1">
          <mxGeometry relative="1" as="geometry">
            <mxPoint x="361.75" y="295.275" as="sourcePoint" />
            <mxPoint x="490" y="305" as="targetPoint" />
          </mxGeometry>
        </mxCell>
        <mxCell id="sX_OkfuKljEF2dyJW8o2-25" style="rounded=0;orthogonalLoop=1;jettySize=auto;html=1;exitX=0.5;exitY=0;exitDx=0;exitDy=0;exitPerimeter=0;entryX=0.5;entryY=0;entryDx=0;entryDy=0;entryPerimeter=0;endArrow=none;startFill=0;strokeWidth=2;" parent="1" edge="1">
          <mxGeometry relative="1" as="geometry">
            <mxPoint x="665" y="274" as="sourcePoint" />
            <mxPoint x="505" y="274" as="targetPoint" />
          </mxGeometry>
        </mxCell>
        <mxCell id="sX_OkfuKljEF2dyJW8o2-26" style="rounded=0;orthogonalLoop=1;jettySize=auto;html=1;exitX=0.145;exitY=0.145;exitDx=0;exitDy=0;exitPerimeter=0;entryX=0.855;entryY=0.8555;entryDx=0;entryDy=0;entryPerimeter=0;endArrow=none;startFill=0;strokeWidth=2;" parent="1" edge="1">
          <mxGeometry relative="1" as="geometry">
            <mxPoint x="522.3499999999999" y="312.17499999999995" as="sourcePoint" />
            <mxPoint x="522.75" y="312.765" as="targetPoint" />
          </mxGeometry>
        </mxCell>
        <mxCell id="sX_OkfuKljEF2dyJW8o2-28" style="rounded=0;orthogonalLoop=1;jettySize=auto;html=1;exitX=0.5;exitY=0;exitDx=0;exitDy=0;exitPerimeter=0;entryX=0.5;entryY=1;entryDx=0;entryDy=0;entryPerimeter=0;endArrow=none;startFill=0;strokeWidth=2;" parent="1" source="sX_OkfuKljEF2dyJW8o2-14" target="sX_OkfuKljEF2dyJW8o2-9" edge="1">
          <mxGeometry relative="1" as="geometry">
            <mxPoint x="657" y="417" as="sourcePoint" />
            <mxPoint x="533" y="323" as="targetPoint" />
          </mxGeometry>
        </mxCell>
        <mxCell id="sX_OkfuKljEF2dyJW8o2-30" style="rounded=0;orthogonalLoop=1;jettySize=auto;html=1;exitX=0;exitY=0.5;exitDx=0;exitDy=0;exitPerimeter=0;entryX=1;entryY=0.5;entryDx=0;entryDy=0;endArrow=none;startFill=0;strokeWidth=2;" parent="1" source="sX_OkfuKljEF2dyJW8o2-57" target="sX_OkfuKljEF2dyJW8o2-57" edge="1">
          <mxGeometry relative="1" as="geometry">
            <mxPoint x="800" y="320" as="sourcePoint" />
            <mxPoint x="690" y="320" as="targetPoint" />
          </mxGeometry>
        </mxCell>
        <mxCell id="sX_OkfuKljEF2dyJW8o2-31" style="rounded=0;orthogonalLoop=1;jettySize=auto;html=1;exitX=0.145;exitY=0.145;exitDx=0;exitDy=0;exitPerimeter=0;entryX=1;entryY=0.5;entryDx=0;entryDy=0;endArrow=none;startFill=0;strokeWidth=2;" parent="1" source="sX_OkfuKljEF2dyJW8o2-83" target="sX_OkfuKljEF2dyJW8o2-63" edge="1">
          <mxGeometry relative="1" as="geometry">
            <mxPoint x="810" y="305" as="sourcePoint" />
            <mxPoint x="700" y="305" as="targetPoint" />
          </mxGeometry>
        </mxCell>
        <mxCell id="sX_OkfuKljEF2dyJW8o2-33" style="rounded=0;orthogonalLoop=1;jettySize=auto;html=1;exitX=0;exitY=0.5;exitDx=0;exitDy=0;entryX=1;entryY=0.25;entryDx=0;entryDy=0;endArrow=none;startFill=0;strokeWidth=2;" parent="1" source="Q-0WuHjyBMRlQhgBISI1-5" target="Q-0WuHjyBMRlQhgBISI1-6" edge="1">
          <mxGeometry relative="1" as="geometry">
            <mxPoint x="810" y="435" as="sourcePoint" />
            <mxPoint x="700" y="435" as="targetPoint" />
          </mxGeometry>
        </mxCell>
        <mxCell id="sX_OkfuKljEF2dyJW8o2-34" style="rounded=0;orthogonalLoop=1;jettySize=auto;html=1;exitX=0.5;exitY=1;exitDx=0;exitDy=0;exitPerimeter=0;entryX=0.5;entryY=0;entryDx=0;entryDy=0;entryPerimeter=0;endArrow=none;startFill=0;strokeWidth=2;" parent="1" source="sX_OkfuKljEF2dyJW8o2-61" target="sX_OkfuKljEF2dyJW8o2-198" edge="1">
          <mxGeometry relative="1" as="geometry">
            <mxPoint x="1295" y="300" as="sourcePoint" />
            <mxPoint x="1295" y="380" as="targetPoint" />
          </mxGeometry>
        </mxCell>
        <mxCell id="sX_OkfuKljEF2dyJW8o2-35" value="" style="sketch=0;points=[[0.5,0,0],[1,0.5,0],[0.5,1,0],[0,0.5,0],[0.145,0.145,0],[0.8555,0.145,0],[0.855,0.8555,0],[0.145,0.855,0]];verticalLabelPosition=bottom;html=1;verticalAlign=top;aspect=fixed;align=center;pointerEvents=1;shape=mxgraph.cisco19.rect;prIcon=router;fillColor=#f8cecc;strokeColor=#b85450;" parent="1" vertex="1">
          <mxGeometry x="552.5" y="131" width="50" height="50" as="geometry" />
        </mxCell>
        <mxCell id="sX_OkfuKljEF2dyJW8o2-36" style="rounded=0;orthogonalLoop=1;jettySize=auto;html=1;exitX=1;exitY=0;exitDx=0;exitDy=0;entryX=0;entryY=1;entryDx=0;entryDy=0;endArrow=none;startFill=0;strokeWidth=2;" parent="1" source="Q-0WuHjyBMRlQhgBISI1-8" target="Q-0WuHjyBMRlQhgBISI1-14" edge="1">
          <mxGeometry relative="1" as="geometry">
            <mxPoint x="361.775" y="259.75" as="sourcePoint" />
            <mxPoint x="550" y="164" as="targetPoint" />
          </mxGeometry>
        </mxCell>
        <mxCell id="sX_OkfuKljEF2dyJW8o2-37" style="rounded=0;orthogonalLoop=1;jettySize=auto;html=1;exitX=0;exitY=0;exitDx=0;exitDy=0;entryX=1;entryY=1;entryDx=0;entryDy=0;endArrow=none;startFill=0;strokeWidth=2;fontColor=light-dark(#6c8ebf, #ededed);textShadow=1;" parent="1" source="Q-0WuHjyBMRlQhgBISI1-13" target="Q-0WuHjyBMRlQhgBISI1-15" edge="1">
          <mxGeometry relative="1" as="geometry">
            <mxPoint x="373" y="227" as="sourcePoint" />
            <mxPoint x="650" y="85" as="targetPoint" />
          </mxGeometry>
        </mxCell>
        <mxCell id="sX_OkfuKljEF2dyJW8o2-38" value="" style="sketch=0;points=[[0.5,0,0],[1,0.5,0],[0.5,1,0],[0,0.5,0],[0.145,0.145,0],[0.8555,0.145,0],[0.855,0.8555,0],[0.145,0.855,0]];verticalLabelPosition=bottom;html=1;verticalAlign=top;aspect=fixed;align=center;pointerEvents=1;shape=mxgraph.cisco19.rect;prIcon=router;fillColor=#f8cecc;strokeColor=#b85450;" parent="1" vertex="1">
          <mxGeometry x="552.5" y="535" width="50" height="50" as="geometry" />
        </mxCell>
        <mxCell id="sX_OkfuKljEF2dyJW8o2-39" style="rounded=0;orthogonalLoop=1;jettySize=auto;html=1;entryX=0;entryY=0;entryDx=0;entryDy=0;endArrow=none;startFill=0;strokeWidth=2;exitX=1;exitY=1;exitDx=0;exitDy=0;" parent="1" source="Q-0WuHjyBMRlQhgBISI1-16" target="Q-0WuHjyBMRlQhgBISI1-17" edge="1">
          <mxGeometry relative="1" as="geometry">
            <mxPoint x="400" y="610" as="sourcePoint" />
            <mxPoint x="534" y="684" as="targetPoint" />
          </mxGeometry>
        </mxCell>
        <mxCell id="sX_OkfuKljEF2dyJW8o2-40" style="rounded=0;orthogonalLoop=1;jettySize=auto;html=1;exitX=1;exitY=0;exitDx=0;exitDy=0;entryX=0;entryY=1;entryDx=0;entryDy=0;endArrow=none;startFill=0;strokeWidth=2;" parent="1" source="Q-0WuHjyBMRlQhgBISI1-18" target="Q-0WuHjyBMRlQhgBISI1-19" edge="1">
          <mxGeometry relative="1" as="geometry">
            <mxPoint x="710" y="549" as="sourcePoint" />
            <mxPoint x="917" y="621" as="targetPoint" />
          </mxGeometry>
        </mxCell>
        <mxCell id="sX_OkfuKljEF2dyJW8o2-47" value="&lt;font style=&quot;color: light-dark(rgb(108, 142, 191), rgb(92, 121, 163));&quot;&gt;EDGE 8&lt;/font&gt;" style="rounded=1;whiteSpace=wrap;html=1;fillColor=#dae8fc;strokeColor=#6c8ebf;fontStyle=1" parent="1" vertex="1">
          <mxGeometry x="320" y="450" width="50" height="20" as="geometry" />
        </mxCell>
        <mxCell id="sX_OkfuKljEF2dyJW8o2-48" value="&lt;font style=&quot;color: light-dark(rgb(129, 179, 121), rgb(129, 179, 121));&quot;&gt;CORE 3&lt;/font&gt;" style="rounded=1;whiteSpace=wrap;html=1;fillColor=#d5e8d4;strokeColor=#82b366;fontStyle=1" parent="1" vertex="1">
          <mxGeometry x="475" y="250" width="60" height="20" as="geometry" />
        </mxCell>
        <mxCell id="sX_OkfuKljEF2dyJW8o2-49" value="&lt;font style=&quot;color: light-dark(rgb(129, 179, 121), rgb(129, 179, 121));&quot;&gt;CORE 2&lt;/font&gt;" style="rounded=1;whiteSpace=wrap;html=1;fillColor=#d5e8d4;strokeColor=#82b366;fontStyle=1" parent="1" vertex="1">
          <mxGeometry x="475" y="450" width="60" height="20" as="geometry" />
        </mxCell>
        <mxCell id="sX_OkfuKljEF2dyJW8o2-50" value="&lt;font style=&quot;color: light-dark(rgb(129, 179, 121), rgb(129, 179, 121));&quot;&gt;CORE 4&lt;/font&gt;" style="rounded=1;whiteSpace=wrap;html=1;fillColor=#d5e8d4;strokeColor=#82b366;fontStyle=1" parent="1" vertex="1">
          <mxGeometry x="635" y="450" width="60" height="20" as="geometry" />
        </mxCell>
        <mxCell id="sX_OkfuKljEF2dyJW8o2-51" value="&lt;font style=&quot;color: light-dark(rgb(129, 179, 121), rgb(129, 179, 121));&quot;&gt;CORE 1&lt;/font&gt;" style="rounded=1;whiteSpace=wrap;html=1;fillColor=#d5e8d4;strokeColor=#82b366;fontStyle=1" parent="1" vertex="1">
          <mxGeometry x="635" y="250" width="60" height="20" as="geometry" />
        </mxCell>
        <mxCell id="sX_OkfuKljEF2dyJW8o2-52" value="&lt;pre&gt;&lt;font face=&quot;Helvetica&quot; style=&quot;color: light-dark(rgb(108, 142, 191), rgb(92, 121, 163));&quot;&gt;&lt;b style=&quot;&quot;&gt;EDGE 5&lt;/b&gt;&lt;/font&gt;&lt;/pre&gt;" style="rounded=1;whiteSpace=wrap;html=1;fillColor=#dae8fc;strokeColor=#6c8ebf;" parent="1" vertex="1">
          <mxGeometry x="800" y="250" width="50" height="20" as="geometry" />
        </mxCell>
        <mxCell id="sX_OkfuKljEF2dyJW8o2-56" value="&lt;pre&gt;&lt;font face=&quot;Helvetica&quot; style=&quot;color: light-dark(rgb(108, 142, 191), rgb(92, 121, 163));&quot;&gt;&lt;b style=&quot;&quot;&gt;EDGE 6&lt;/b&gt;&lt;/font&gt;&lt;/pre&gt;" style="rounded=1;whiteSpace=wrap;html=1;fillColor=#dae8fc;strokeColor=#6c8ebf;" parent="1" vertex="1">
          <mxGeometry x="800" y="446" width="50" height="20" as="geometry" />
        </mxCell>
        <mxCell id="sX_OkfuKljEF2dyJW8o2-59" value="" style="rounded=0;orthogonalLoop=1;jettySize=auto;html=1;exitX=0;exitY=0.5;exitDx=0;exitDy=0;entryX=1;entryY=0.5;entryDx=0;entryDy=0;endArrow=none;startFill=0;strokeWidth=2;" parent="1" source="Q-0WuHjyBMRlQhgBISI1-3" target="Q-0WuHjyBMRlQhgBISI1-4" edge="1">
          <mxGeometry relative="1" as="geometry">
            <mxPoint x="800" y="425" as="sourcePoint" />
            <mxPoint x="742" y="412.5" as="targetPoint" />
          </mxGeometry>
        </mxCell>
        <mxCell id="sX_OkfuKljEF2dyJW8o2-60" value="&lt;pre&gt;&lt;font face=&quot;Helvetica&quot; style=&quot;color: light-dark(rgb(0, 0, 0), rgb(92, 121, 163));&quot;&gt;&lt;b style=&quot;&quot;&gt;BE4&lt;/b&gt;&lt;/font&gt;&lt;/pre&gt;" style="rounded=1;whiteSpace=wrap;html=1;" parent="1" vertex="1">
          <mxGeometry x="650" y="350" width="30" height="15" as="geometry" />
        </mxCell>
        <mxCell id="sX_OkfuKljEF2dyJW8o2-62" value="" style="rounded=0;orthogonalLoop=1;jettySize=auto;html=1;exitX=0.5;exitY=1;exitDx=0;exitDy=0;exitPerimeter=0;entryX=0.5;entryY=0;entryDx=0;entryDy=0;entryPerimeter=0;endArrow=none;startFill=0;strokeWidth=2;" parent="1" source="sX_OkfuKljEF2dyJW8o2-10" target="sX_OkfuKljEF2dyJW8o2-61" edge="1">
          <mxGeometry relative="1" as="geometry">
            <mxPoint x="825" y="320" as="sourcePoint" />
            <mxPoint x="825" y="400" as="targetPoint" />
          </mxGeometry>
        </mxCell>
        <mxCell id="sX_OkfuKljEF2dyJW8o2-61" value="&lt;pre&gt;&lt;font face=&quot;Helvetica&quot; style=&quot;color: light-dark(rgb(0, 0, 0), rgb(92, 121, 163));&quot;&gt;&lt;b style=&quot;&quot;&gt;BE3&lt;/b&gt;&lt;/font&gt;&lt;/pre&gt;" style="rounded=1;whiteSpace=wrap;html=1;" parent="1" vertex="1">
          <mxGeometry x="810" y="350" width="30" height="15" as="geometry" />
        </mxCell>
        <mxCell id="sX_OkfuKljEF2dyJW8o2-68" value="&lt;pre&gt;&lt;font face=&quot;Helvetica&quot; style=&quot;color: light-dark(rgb(0, 0, 0), rgb(92, 121, 163));&quot;&gt;&lt;b style=&quot;&quot;&gt;BE100&lt;/b&gt;&lt;/font&gt;&lt;/pre&gt;" style="rounded=1;whiteSpace=wrap;html=1;" parent="1" vertex="1">
          <mxGeometry x="560" y="262" width="50" height="15" as="geometry" />
        </mxCell>
        <mxCell id="sX_OkfuKljEF2dyJW8o2-76" value="" style="rounded=0;orthogonalLoop=1;jettySize=auto;html=1;exitX=0;exitY=0.5;exitDx=0;exitDy=0;exitPerimeter=0;entryX=1;entryY=0.5;entryDx=0;entryDy=0;entryPerimeter=0;endArrow=none;startFill=0;strokeWidth=2;" parent="1" source="sX_OkfuKljEF2dyJW8o2-14" edge="1">
          <mxGeometry relative="1" as="geometry">
            <mxPoint x="640" y="425" as="sourcePoint" />
            <mxPoint x="640" y="425.5" as="targetPoint" />
          </mxGeometry>
        </mxCell>
        <mxCell id="sX_OkfuKljEF2dyJW8o2-83" value="&lt;pre&gt;&lt;font face=&quot;Helvetica&quot; style=&quot;color: light-dark(rgb(0, 0, 0), rgb(92, 121, 163));&quot;&gt;&lt;b style=&quot;&quot;&gt;BE1&lt;/b&gt;&lt;/font&gt;&lt;/pre&gt;" style="rounded=1;whiteSpace=wrap;html=1;" parent="1" vertex="1">
          <mxGeometry x="770" y="402" width="30" height="15" as="geometry" />
        </mxCell>
        <mxCell id="sX_OkfuKljEF2dyJW8o2-85" value="" style="rounded=0;orthogonalLoop=1;jettySize=auto;html=1;exitX=0;exitY=0.5;exitDx=0;exitDy=0;entryX=1;entryY=0.5;entryDx=0;entryDy=0;entryPerimeter=0;endArrow=none;startFill=0;strokeWidth=2;" parent="1" source="Q-0WuHjyBMRlQhgBISI1-2" target="sX_OkfuKljEF2dyJW8o2-57" edge="1">
          <mxGeometry relative="1" as="geometry">
            <mxPoint x="800" y="295" as="sourcePoint" />
            <mxPoint x="690" y="295" as="targetPoint" />
          </mxGeometry>
        </mxCell>
        <mxCell id="sX_OkfuKljEF2dyJW8o2-57" value="&lt;pre&gt;&lt;font face=&quot;Helvetica&quot; style=&quot;color: light-dark(rgb(0, 0, 0), rgb(92, 121, 163));&quot;&gt;&lt;b style=&quot;&quot;&gt;BE2&lt;/b&gt;&lt;/font&gt;&lt;/pre&gt;" style="rounded=1;whiteSpace=wrap;html=1;" parent="1" vertex="1">
          <mxGeometry x="690" y="287.5" width="30" height="15" as="geometry" />
        </mxCell>
        <mxCell id="sX_OkfuKljEF2dyJW8o2-86" value="&lt;pre&gt;&lt;font face=&quot;Helvetica&quot; style=&quot;color: light-dark(rgb(0, 0, 0), rgb(92, 121, 163));&quot;&gt;&lt;b style=&quot;&quot;&gt;BE2&lt;/b&gt;&lt;/font&gt;&lt;/pre&gt;" style="rounded=1;whiteSpace=wrap;html=1;" parent="1" vertex="1">
          <mxGeometry x="450" y="287.5" width="30" height="15" as="geometry" />
        </mxCell>
        <mxCell id="sX_OkfuKljEF2dyJW8o2-88" value="&lt;pre&gt;&lt;font face=&quot;Helvetica&quot; style=&quot;color: light-dark(rgb(0, 0, 0), rgb(92, 121, 163));&quot;&gt;&lt;b style=&quot;&quot;&gt;BE1&lt;/b&gt;&lt;/font&gt;&lt;/pre&gt;" style="rounded=1;whiteSpace=wrap;html=1;" parent="1" vertex="1">
          <mxGeometry x="450" y="302.5" width="30" height="15" as="geometry" />
        </mxCell>
        <mxCell id="sX_OkfuKljEF2dyJW8o2-89" value="&lt;pre&gt;&lt;font face=&quot;Helvetica&quot; style=&quot;color: light-dark(rgb(0, 0, 0), rgb(92, 121, 163));&quot;&gt;&lt;b style=&quot;&quot;&gt;BE1&lt;/b&gt;&lt;/font&gt;&lt;/pre&gt;" style="rounded=1;whiteSpace=wrap;html=1;" parent="1" vertex="1">
          <mxGeometry x="369" y="402" width="30" height="15" as="geometry" />
        </mxCell>
        <mxCell id="sX_OkfuKljEF2dyJW8o2-90" value="&lt;pre&gt;&lt;font face=&quot;Helvetica&quot; style=&quot;color: light-dark(rgb(0, 0, 0), rgb(92, 121, 163));&quot;&gt;&lt;b style=&quot;&quot;&gt;BE2&lt;/b&gt;&lt;/font&gt;&lt;/pre&gt;" style="rounded=1;whiteSpace=wrap;html=1;" parent="1" vertex="1">
          <mxGeometry x="369" y="287.5" width="30" height="15" as="geometry" />
        </mxCell>
        <mxCell id="sX_OkfuKljEF2dyJW8o2-91" value="&lt;pre&gt;&lt;font face=&quot;Helvetica&quot; style=&quot;color: light-dark(rgb(0, 0, 0), rgb(92, 121, 163));&quot;&gt;&lt;b style=&quot;&quot;&gt;BE5&lt;/b&gt;&lt;/font&gt;&lt;/pre&gt;" style="rounded=1;whiteSpace=wrap;html=1;" parent="1" vertex="1">
          <mxGeometry x="369" y="303" width="30" height="15" as="geometry" />
        </mxCell>
        <mxCell id="sX_OkfuKljEF2dyJW8o2-44" value="&lt;pre&gt;&lt;font face=&quot;Helvetica&quot; style=&quot;color: light-dark(rgb(108, 142, 191), rgb(92, 121, 163));&quot;&gt;&lt;b style=&quot;&quot;&gt;EDGE 7&lt;/b&gt;&lt;/font&gt;&lt;/pre&gt;" style="rounded=1;whiteSpace=wrap;html=1;fillColor=#dae8fc;strokeColor=#6c8ebf;" parent="1" vertex="1">
          <mxGeometry x="320" y="250" width="50" height="20" as="geometry" />
        </mxCell>
        <mxCell id="sX_OkfuKljEF2dyJW8o2-92" value="&lt;pre&gt;&lt;font face=&quot;Helvetica&quot; style=&quot;color: light-dark(rgb(0, 0, 0), rgb(92, 121, 163));&quot;&gt;&lt;b style=&quot;&quot;&gt;BE6&lt;/b&gt;&lt;/font&gt;&lt;/pre&gt;" style="rounded=1;whiteSpace=wrap;html=1;" parent="1" vertex="1">
          <mxGeometry x="370" y="418" width="30" height="15" as="geometry" />
        </mxCell>
        <mxCell id="sX_OkfuKljEF2dyJW8o2-94" value="&lt;pre&gt;&lt;font face=&quot;Helvetica&quot; style=&quot;color: light-dark(rgb(0, 0, 0), rgb(92, 121, 163));&quot;&gt;&lt;b style=&quot;&quot;&gt;BE6&lt;/b&gt;&lt;/font&gt;&lt;/pre&gt;" style="rounded=1;whiteSpace=wrap;html=1;" parent="1" vertex="1">
          <mxGeometry x="450" y="418" width="30" height="15" as="geometry" />
        </mxCell>
        <mxCell id="sX_OkfuKljEF2dyJW8o2-101" value="&lt;font style=&quot;font-size: 15px;&quot;&gt;&lt;b&gt;ASN 100&lt;/b&gt;&lt;/font&gt;" style="rounded=1;whiteSpace=wrap;html=1;fillColor=#E0D4B4;strokeColor=#d6b656;" parent="1" vertex="1">
          <mxGeometry x="547.5" y="221" width="75" height="20" as="geometry" />
        </mxCell>
        <mxCell id="sX_OkfuKljEF2dyJW8o2-102" value="&lt;pre&gt;&lt;font face=&quot;Helvetica&quot; style=&quot;color: light-dark(rgb(185, 84, 80), rgb(92, 121, 163));&quot;&gt;&lt;b style=&quot;&quot;&gt;DC-10&lt;/b&gt;&lt;/font&gt;&lt;/pre&gt;" style="rounded=1;whiteSpace=wrap;html=1;fillColor=#f8cecc;strokeColor=#b85450;" parent="1" vertex="1">
          <mxGeometry x="552.5" y="111" width="50" height="20" as="geometry" />
        </mxCell>
        <mxCell id="sX_OkfuKljEF2dyJW8o2-104" value="&lt;pre&gt;&lt;font face=&quot;Helvetica&quot; style=&quot;color: light-dark(rgb(185, 84, 80), rgb(92, 121, 163));&quot;&gt;&lt;b style=&quot;&quot;&gt;DC-11&lt;/b&gt;&lt;/font&gt;&lt;/pre&gt;" style="rounded=1;whiteSpace=wrap;html=1;fillColor=#f8cecc;strokeColor=#b85450;" parent="1" vertex="1">
          <mxGeometry x="552.5" y="585" width="50" height="20" as="geometry" />
        </mxCell>
        <mxCell id="sX_OkfuKljEF2dyJW8o2-105" value="" style="sketch=0;points=[[0.5,0,0],[1,0.5,0],[0.5,1,0],[0,0.5,0],[0.145,0.145,0],[0.8555,0.145,0],[0.855,0.8555,0],[0.145,0.855,0]];verticalLabelPosition=bottom;html=1;verticalAlign=top;aspect=fixed;align=center;pointerEvents=1;shape=mxgraph.cisco19.rect;prIcon=router;fillColor=#dae8fc;strokeColor=#6c8ebf;strokeWidth=1;perimeterSpacing=0;" parent="1" vertex="1">
          <mxGeometry x="366" y="670" width="50" height="50" as="geometry" />
        </mxCell>
        <mxCell id="sX_OkfuKljEF2dyJW8o2-107" value="" style="sketch=0;points=[[0.5,0,0],[1,0.5,0],[0.5,1,0],[0,0.5,0],[0.145,0.145,0],[0.8555,0.145,0],[0.855,0.8555,0],[0.145,0.855,0]];verticalLabelPosition=bottom;html=1;verticalAlign=top;aspect=fixed;align=center;pointerEvents=1;shape=mxgraph.cisco19.rect;prIcon=router;fillColor=#dae8fc;strokeColor=#6c8ebf;strokeWidth=1;perimeterSpacing=0;" parent="1" vertex="1">
          <mxGeometry x="779" y="670" width="50" height="50" as="geometry" />
        </mxCell>
        <mxCell id="sX_OkfuKljEF2dyJW8o2-112" value="&lt;pre&gt;&lt;font face=&quot;Helvetica&quot; style=&quot;color: light-dark(rgb(102, 102, 102), rgb(92, 121, 163));&quot;&gt;&lt;b style=&quot;&quot;&gt;PE2&lt;/b&gt;&lt;/font&gt;&lt;/pre&gt;" style="rounded=1;whiteSpace=wrap;html=1;fillColor=#dae8fc;strokeColor=#6c8ebf;" parent="1" vertex="1">
          <mxGeometry x="416" y="686.5" width="50" height="20" as="geometry" />
        </mxCell>
        <mxCell id="sX_OkfuKljEF2dyJW8o2-114" value="&lt;pre&gt;&lt;font face=&quot;Helvetica&quot; style=&quot;color: light-dark(rgb(102, 102, 102), rgb(92, 121, 163));&quot;&gt;&lt;b style=&quot;&quot;&gt;PE1&lt;/b&gt;&lt;/font&gt;&lt;/pre&gt;" style="rounded=1;whiteSpace=wrap;html=1;fillColor=#dae8fc;strokeColor=#6c8ebf;" parent="1" vertex="1">
          <mxGeometry x="729" y="686.5" width="50" height="20" as="geometry" />
        </mxCell>
        <mxCell id="sX_OkfuKljEF2dyJW8o2-118" value="&lt;pre&gt;&lt;font face=&quot;Helvetica&quot; style=&quot;color: light-dark(rgb(0, 0, 0), rgb(92, 121, 163));&quot;&gt;&lt;b style=&quot;&quot;&gt;G3&lt;/b&gt;&lt;/font&gt;&lt;/pre&gt;" style="rounded=1;whiteSpace=wrap;html=1;" parent="1" vertex="1">
          <mxGeometry x="829" y="670" width="30" height="15" as="geometry" />
        </mxCell>
        <mxCell id="sX_OkfuKljEF2dyJW8o2-119" value="&lt;pre&gt;&lt;font face=&quot;Helvetica&quot; style=&quot;color: light-dark(rgb(0, 0, 0), rgb(92, 121, 163));&quot;&gt;&lt;b style=&quot;&quot;&gt;G1&lt;/b&gt;&lt;/font&gt;&lt;/pre&gt;" style="rounded=1;whiteSpace=wrap;html=1;" parent="1" vertex="1">
          <mxGeometry x="829" y="703" width="30" height="15" as="geometry" />
        </mxCell>
        <mxCell id="sX_OkfuKljEF2dyJW8o2-120" value="&lt;pre&gt;&lt;font face=&quot;Helvetica&quot; style=&quot;color: light-dark(rgb(0, 0, 0), rgb(92, 121, 163));&quot;&gt;&lt;b style=&quot;&quot;&gt;G0&lt;/b&gt;&lt;/font&gt;&lt;/pre&gt;" style="rounded=1;whiteSpace=wrap;html=1;" parent="1" vertex="1">
          <mxGeometry x="850" y="287.5" width="30" height="15" as="geometry" />
        </mxCell>
        <mxCell id="sX_OkfuKljEF2dyJW8o2-121" value="&lt;pre&gt;&lt;font face=&quot;Helvetica&quot; style=&quot;color: light-dark(rgb(0, 0, 0), rgb(92, 121, 163));&quot;&gt;&lt;b style=&quot;&quot;&gt;G0&lt;/b&gt;&lt;/font&gt;&lt;/pre&gt;" style="rounded=1;whiteSpace=wrap;html=1;" parent="1" vertex="1">
          <mxGeometry x="850" y="418" width="30" height="15" as="geometry" />
        </mxCell>
        <mxCell id="sX_OkfuKljEF2dyJW8o2-123" value="&lt;pre&gt;&lt;font face=&quot;Helvetica&quot; style=&quot;color: light-dark(rgb(0, 0, 0), rgb(92, 121, 163));&quot;&gt;&lt;b style=&quot;&quot;&gt;G2&lt;/b&gt;&lt;/font&gt;&lt;/pre&gt;" style="rounded=1;whiteSpace=wrap;html=1;" parent="1" vertex="1">
          <mxGeometry x="829" y="686.5" width="30" height="15" as="geometry" />
        </mxCell>
        <mxCell id="sX_OkfuKljEF2dyJW8o2-125" value="" style="sketch=0;points=[[0.5,0,0],[1,0.5,0],[0.5,1,0],[0,0.5,0],[0.145,0.145,0],[0.8555,0.145,0],[0.855,0.8555,0],[0.145,0.855,0]];verticalLabelPosition=bottom;html=1;verticalAlign=top;aspect=fixed;align=center;pointerEvents=1;shape=mxgraph.cisco19.rect;prIcon=router;fillColor=#d5e8d4;strokeColor=#82b366;strokeWidth=1;perimeterSpacing=0;" parent="1" vertex="1">
          <mxGeometry x="366" y="835" width="50" height="50" as="geometry" />
        </mxCell>
        <mxCell id="sX_OkfuKljEF2dyJW8o2-126" value="" style="sketch=0;points=[[0.5,0,0],[1,0.5,0],[0.5,1,0],[0,0.5,0],[0.145,0.145,0],[0.8555,0.145,0],[0.855,0.8555,0],[0.145,0.855,0]];verticalLabelPosition=bottom;html=1;verticalAlign=top;aspect=fixed;align=center;pointerEvents=1;shape=mxgraph.cisco19.rect;prIcon=router;fillColor=#d5e8d4;strokeColor=#82b366;strokeWidth=1;perimeterSpacing=0;" parent="1" vertex="1">
          <mxGeometry x="780" y="835" width="50" height="50" as="geometry" />
        </mxCell>
        <mxCell id="sX_OkfuKljEF2dyJW8o2-130" style="rounded=0;orthogonalLoop=1;jettySize=auto;html=1;exitX=0.8555;exitY=0.145;exitDx=0;exitDy=0;exitPerimeter=0;entryX=0.145;entryY=0.145;entryDx=0;entryDy=0;entryPerimeter=0;endArrow=none;startFill=0;strokeWidth=2;" parent="1" source="sX_OkfuKljEF2dyJW8o2-125" target="sX_OkfuKljEF2dyJW8o2-126" edge="1">
          <mxGeometry relative="1" as="geometry">
            <mxPoint x="438" y="675" as="sourcePoint" />
            <mxPoint x="628" y="757" as="targetPoint" />
          </mxGeometry>
        </mxCell>
        <mxCell id="sX_OkfuKljEF2dyJW8o2-131" style="rounded=0;orthogonalLoop=1;jettySize=auto;html=1;exitX=0.855;exitY=0.8555;exitDx=0;exitDy=0;exitPerimeter=0;entryX=0.145;entryY=0.855;entryDx=0;entryDy=0;entryPerimeter=0;endArrow=none;startFill=0;strokeWidth=2;" parent="1" source="sX_OkfuKljEF2dyJW8o2-125" target="sX_OkfuKljEF2dyJW8o2-126" edge="1">
          <mxGeometry relative="1" as="geometry">
            <mxPoint x="417" y="672" as="sourcePoint" />
            <mxPoint x="795" y="672" as="targetPoint" />
          </mxGeometry>
        </mxCell>
        <mxCell id="sX_OkfuKljEF2dyJW8o2-132" value="" style="sketch=0;points=[[0.5,0,0],[1,0.5,0],[0.5,1,0],[0,0.5,0],[0.145,0.145,0],[0.8555,0.145,0],[0.855,0.8555,0],[0.145,0.855,0]];verticalLabelPosition=bottom;html=1;verticalAlign=top;aspect=fixed;align=center;pointerEvents=1;shape=mxgraph.cisco19.rect;prIcon=router;fillColor=#dae8fc;strokeColor=#6c8ebf;strokeWidth=1;perimeterSpacing=0;" parent="1" vertex="1">
          <mxGeometry x="366" y="995" width="50" height="50" as="geometry" />
        </mxCell>
        <mxCell id="sX_OkfuKljEF2dyJW8o2-133" value="" style="sketch=0;points=[[0.5,0,0],[1,0.5,0],[0.5,1,0],[0,0.5,0],[0.145,0.145,0],[0.8555,0.145,0],[0.855,0.8555,0],[0.145,0.855,0]];verticalLabelPosition=bottom;html=1;verticalAlign=top;aspect=fixed;align=center;pointerEvents=1;shape=mxgraph.cisco19.rect;prIcon=router;fillColor=#dae8fc;strokeColor=#6c8ebf;strokeWidth=1;perimeterSpacing=0;" parent="1" vertex="1">
          <mxGeometry x="780" y="995" width="50" height="50" as="geometry" />
        </mxCell>
        <mxCell id="sX_OkfuKljEF2dyJW8o2-134" style="rounded=0;orthogonalLoop=1;jettySize=auto;html=1;exitX=0.5;exitY=1;exitDx=0;exitDy=0;exitPerimeter=0;entryX=0.5;entryY=0;entryDx=0;entryDy=0;entryPerimeter=0;endArrow=none;startFill=0;strokeWidth=2;" parent="1" source="sX_OkfuKljEF2dyJW8o2-125" target="sX_OkfuKljEF2dyJW8o2-133" edge="1">
          <mxGeometry relative="1" as="geometry">
            <mxPoint x="418" y="825" as="sourcePoint" />
            <mxPoint x="796" y="825" as="targetPoint" />
          </mxGeometry>
        </mxCell>
        <mxCell id="sX_OkfuKljEF2dyJW8o2-135" style="rounded=0;orthogonalLoop=1;jettySize=auto;html=1;exitX=0.5;exitY=0;exitDx=0;exitDy=0;exitPerimeter=0;entryX=0.5;entryY=1;entryDx=0;entryDy=0;entryPerimeter=0;endArrow=none;startFill=0;strokeWidth=2;" parent="1" source="sX_OkfuKljEF2dyJW8o2-132" target="sX_OkfuKljEF2dyJW8o2-126" edge="1">
          <mxGeometry relative="1" as="geometry">
            <mxPoint x="399" y="735" as="sourcePoint" />
            <mxPoint x="813" y="865" as="targetPoint" />
          </mxGeometry>
        </mxCell>
        <mxCell id="sX_OkfuKljEF2dyJW8o2-136" style="rounded=0;orthogonalLoop=1;jettySize=auto;html=1;exitX=0.5;exitY=0;exitDx=0;exitDy=0;exitPerimeter=0;entryX=0.5;entryY=1;entryDx=0;entryDy=0;entryPerimeter=0;endArrow=none;startFill=0;strokeWidth=2;" parent="1" source="sX_OkfuKljEF2dyJW8o2-132" target="sX_OkfuKljEF2dyJW8o2-125" edge="1">
          <mxGeometry relative="1" as="geometry">
            <mxPoint x="403" y="865" as="sourcePoint" />
            <mxPoint x="813" y="735" as="targetPoint" />
          </mxGeometry>
        </mxCell>
        <mxCell id="sX_OkfuKljEF2dyJW8o2-137" style="rounded=0;orthogonalLoop=1;jettySize=auto;html=1;exitX=0.5;exitY=0;exitDx=0;exitDy=0;exitPerimeter=0;entryX=0.5;entryY=1;entryDx=0;entryDy=0;entryPerimeter=0;endArrow=none;startFill=0;strokeWidth=2;" parent="1" source="sX_OkfuKljEF2dyJW8o2-133" target="sX_OkfuKljEF2dyJW8o2-126" edge="1">
          <mxGeometry relative="1" as="geometry">
            <mxPoint x="967" y="825" as="sourcePoint" />
            <mxPoint x="967" y="695" as="targetPoint" />
          </mxGeometry>
        </mxCell>
        <mxCell id="sX_OkfuKljEF2dyJW8o2-138" value="&lt;pre&gt;&lt;font face=&quot;Helvetica&quot; style=&quot;color: light-dark(rgb(0, 0, 0), rgb(92, 121, 163));&quot;&gt;&lt;b style=&quot;&quot;&gt;G8&lt;/b&gt;&lt;/font&gt;&lt;/pre&gt;" style="rounded=1;whiteSpace=wrap;html=1;" parent="1" vertex="1">
          <mxGeometry x="773" y="720" width="30" height="15" as="geometry" />
        </mxCell>
        <mxCell id="sX_OkfuKljEF2dyJW8o2-139" value="&lt;pre&gt;&lt;font face=&quot;Helvetica&quot; style=&quot;color: light-dark(rgb(0, 0, 0), rgb(92, 121, 163));&quot;&gt;&lt;b style=&quot;&quot;&gt;G9&lt;/b&gt;&lt;/font&gt;&lt;/pre&gt;" style="rounded=1;whiteSpace=wrap;html=1;" parent="1" vertex="1">
          <mxGeometry x="803" y="720" width="30" height="15" as="geometry" />
        </mxCell>
        <mxCell id="sX_OkfuKljEF2dyJW8o2-140" value="&lt;pre&gt;&lt;font face=&quot;Helvetica&quot; style=&quot;color: light-dark(rgb(0, 0, 0), rgb(92, 121, 163));&quot;&gt;&lt;b style=&quot;&quot;&gt;G8&lt;/b&gt;&lt;/font&gt;&lt;/pre&gt;" style="rounded=1;whiteSpace=wrap;html=1;" parent="1" vertex="1">
          <mxGeometry x="396" y="720" width="30" height="15" as="geometry" />
        </mxCell>
        <mxCell id="sX_OkfuKljEF2dyJW8o2-141" value="&lt;pre&gt;&lt;font face=&quot;Helvetica&quot; style=&quot;color: light-dark(rgb(0, 0, 0), rgb(92, 121, 163));&quot;&gt;&lt;b style=&quot;&quot;&gt;G9&lt;/b&gt;&lt;/font&gt;&lt;/pre&gt;" style="rounded=1;whiteSpace=wrap;html=1;" parent="1" vertex="1">
          <mxGeometry x="366" y="720" width="30" height="15" as="geometry" />
        </mxCell>
        <mxCell id="sX_OkfuKljEF2dyJW8o2-143" value="&lt;pre&gt;&lt;font face=&quot;Helvetica&quot; style=&quot;color: light-dark(rgb(0, 0, 0), rgb(92, 121, 163));&quot;&gt;&lt;b style=&quot;&quot;&gt;G8&lt;/b&gt;&lt;/font&gt;&lt;/pre&gt;" style="rounded=1;whiteSpace=wrap;html=1;" parent="1" vertex="1">
          <mxGeometry x="396" y="820" width="30" height="15" as="geometry" />
        </mxCell>
        <mxCell id="sX_OkfuKljEF2dyJW8o2-144" value="&lt;pre&gt;&lt;font face=&quot;Helvetica&quot; style=&quot;color: light-dark(rgb(0, 0, 0), rgb(92, 121, 163));&quot;&gt;&lt;b style=&quot;&quot;&gt;G9&lt;/b&gt;&lt;/font&gt;&lt;/pre&gt;" style="rounded=1;whiteSpace=wrap;html=1;" parent="1" vertex="1">
          <mxGeometry x="366" y="820" width="30" height="15" as="geometry" />
        </mxCell>
        <mxCell id="sX_OkfuKljEF2dyJW8o2-145" value="&lt;pre&gt;&lt;font face=&quot;Helvetica&quot; style=&quot;color: light-dark(rgb(0, 0, 0), rgb(92, 121, 163));&quot;&gt;&lt;b style=&quot;&quot;&gt;G8&lt;/b&gt;&lt;/font&gt;&lt;/pre&gt;" style="rounded=1;whiteSpace=wrap;html=1;" parent="1" vertex="1">
          <mxGeometry x="773" y="820" width="30" height="15" as="geometry" />
        </mxCell>
        <mxCell id="sX_OkfuKljEF2dyJW8o2-146" value="&lt;pre&gt;&lt;font face=&quot;Helvetica&quot; style=&quot;color: light-dark(rgb(0, 0, 0), rgb(92, 121, 163));&quot;&gt;&lt;b style=&quot;&quot;&gt;G9&lt;/b&gt;&lt;/font&gt;&lt;/pre&gt;" style="rounded=1;whiteSpace=wrap;html=1;" parent="1" vertex="1">
          <mxGeometry x="803" y="820" width="30" height="15" as="geometry" />
        </mxCell>
        <mxCell id="sX_OkfuKljEF2dyJW8o2-148" style="rounded=0;orthogonalLoop=1;jettySize=auto;html=1;endArrow=none;startFill=0;strokeWidth=2;exitX=0.5;exitY=0;exitDx=0;exitDy=0;entryX=0.5;entryY=1;entryDx=0;entryDy=0;edgeStyle=orthogonalEdgeStyle;curved=1;" parent="1" source="sX_OkfuKljEF2dyJW8o2-146" target="sX_OkfuKljEF2dyJW8o2-139" edge="1">
          <mxGeometry relative="1" as="geometry">
            <mxPoint x="494" y="788" as="sourcePoint" />
            <mxPoint x="1068" y="413" as="targetPoint" />
          </mxGeometry>
        </mxCell>
        <mxCell id="sX_OkfuKljEF2dyJW8o2-149" style="rounded=0;orthogonalLoop=1;jettySize=auto;html=1;endArrow=none;startFill=0;strokeWidth=2;exitX=0.5;exitY=1;exitDx=0;exitDy=0;edgeStyle=orthogonalEdgeStyle;curved=1;entryX=0.5;entryY=0;entryDx=0;entryDy=0;" parent="1" source="sX_OkfuKljEF2dyJW8o2-141" target="sX_OkfuKljEF2dyJW8o2-144" edge="1">
          <mxGeometry relative="1" as="geometry">
            <mxPoint x="782" y="382.5" as="sourcePoint" />
            <mxPoint x="318" y="765" as="targetPoint" />
          </mxGeometry>
        </mxCell>
        <mxCell id="sX_OkfuKljEF2dyJW8o2-151" value="&lt;pre&gt;&lt;font face=&quot;Helvetica&quot; color=&quot;#666666&quot;&gt;&lt;b&gt;P5&lt;/b&gt;&lt;/font&gt;&lt;/pre&gt;" style="rounded=1;whiteSpace=wrap;html=1;fillColor=#d5e8d4;strokeColor=#82b366;" parent="1" vertex="1">
          <mxGeometry x="830" y="850" width="50" height="20" as="geometry" />
        </mxCell>
        <mxCell id="sX_OkfuKljEF2dyJW8o2-152" value="&lt;pre&gt;&lt;font face=&quot;Helvetica&quot; color=&quot;#666666&quot;&gt;&lt;b&gt;P6&lt;/b&gt;&lt;/font&gt;&lt;/pre&gt;" style="rounded=1;whiteSpace=wrap;html=1;fillColor=#d5e8d4;strokeColor=#82b366;" parent="1" vertex="1">
          <mxGeometry x="316" y="850" width="50" height="20" as="geometry" />
        </mxCell>
        <mxCell id="sX_OkfuKljEF2dyJW8o2-153" value="&lt;pre&gt;&lt;font face=&quot;Helvetica&quot; style=&quot;color: light-dark(rgb(0, 0, 0), rgb(92, 121, 163));&quot;&gt;&lt;b style=&quot;&quot;&gt;G1&lt;/b&gt;&lt;/font&gt;&lt;/pre&gt;" style="rounded=1;whiteSpace=wrap;html=1;" parent="1" vertex="1">
          <mxGeometry x="750" y="835" width="30" height="15" as="geometry" />
        </mxCell>
        <mxCell id="sX_OkfuKljEF2dyJW8o2-154" value="&lt;pre&gt;&lt;font face=&quot;Helvetica&quot; style=&quot;color: light-dark(rgb(0, 0, 0), rgb(92, 121, 163));&quot;&gt;&lt;b style=&quot;&quot;&gt;G2&lt;/b&gt;&lt;/font&gt;&lt;/pre&gt;" style="rounded=1;whiteSpace=wrap;html=1;" parent="1" vertex="1">
          <mxGeometry x="750" y="870" width="30" height="15" as="geometry" />
        </mxCell>
        <mxCell id="sX_OkfuKljEF2dyJW8o2-156" value="&lt;pre&gt;&lt;font face=&quot;Helvetica&quot; style=&quot;color: light-dark(rgb(0, 0, 0), rgb(92, 121, 163));&quot;&gt;&lt;b style=&quot;&quot;&gt;G2&lt;/b&gt;&lt;/font&gt;&lt;/pre&gt;" style="rounded=1;whiteSpace=wrap;html=1;" parent="1" vertex="1">
          <mxGeometry x="416" y="870" width="30" height="15" as="geometry" />
        </mxCell>
        <mxCell id="sX_OkfuKljEF2dyJW8o2-157" value="&lt;pre&gt;&lt;font face=&quot;Helvetica&quot; style=&quot;color: light-dark(rgb(0, 0, 0), rgb(92, 121, 163));&quot;&gt;&lt;b style=&quot;&quot;&gt;G1&lt;/b&gt;&lt;/font&gt;&lt;/pre&gt;" style="rounded=1;whiteSpace=wrap;html=1;" parent="1" vertex="1">
          <mxGeometry x="416" y="835" width="30" height="15" as="geometry" />
        </mxCell>
        <mxCell id="sX_OkfuKljEF2dyJW8o2-158" value="&lt;pre&gt;&lt;font face=&quot;Helvetica&quot; style=&quot;color: light-dark(rgb(0, 0, 0), rgb(92, 121, 163));&quot;&gt;&lt;b style=&quot;&quot;&gt;G7&lt;/b&gt;&lt;/font&gt;&lt;/pre&gt;" style="rounded=1;whiteSpace=wrap;html=1;" parent="1" vertex="1">
          <mxGeometry x="376" y="888" width="30" height="15" as="geometry" />
        </mxCell>
        <mxCell id="sX_OkfuKljEF2dyJW8o2-159" value="&lt;pre&gt;&lt;font face=&quot;Helvetica&quot; color=&quot;#666666&quot;&gt;&lt;b&gt;PE4&lt;/b&gt;&lt;/font&gt;&lt;/pre&gt;" style="rounded=1;whiteSpace=wrap;html=1;fillColor=#dae8fc;strokeColor=#6c8ebf;" parent="1" vertex="1">
          <mxGeometry x="316" y="1010" width="50" height="20" as="geometry" />
        </mxCell>
        <mxCell id="sX_OkfuKljEF2dyJW8o2-160" value="&lt;pre&gt;&lt;font face=&quot;Helvetica&quot; style=&quot;color: light-dark(rgb(0, 0, 0), rgb(92, 121, 163));&quot;&gt;&lt;b style=&quot;&quot;&gt;G7&lt;/b&gt;&lt;/font&gt;&lt;/pre&gt;" style="rounded=1;whiteSpace=wrap;html=1;" parent="1" vertex="1">
          <mxGeometry x="376" y="977" width="30" height="15" as="geometry" />
        </mxCell>
        <mxCell id="sX_OkfuKljEF2dyJW8o2-161" value="&lt;pre&gt;&lt;font face=&quot;Helvetica&quot; style=&quot;color: light-dark(rgb(0, 0, 0), rgb(92, 121, 163));&quot;&gt;&lt;b style=&quot;&quot;&gt;G6&lt;/b&gt;&lt;/font&gt;&lt;/pre&gt;" style="rounded=1;whiteSpace=wrap;html=1;" parent="1" vertex="1">
          <mxGeometry x="416" y="888" width="30" height="15" as="geometry" />
        </mxCell>
        <mxCell id="sX_OkfuKljEF2dyJW8o2-162" value="&lt;pre&gt;&lt;font face=&quot;Helvetica&quot; style=&quot;color: light-dark(rgb(0, 0, 0), rgb(92, 121, 163));&quot;&gt;&lt;b style=&quot;&quot;&gt;G6&lt;/b&gt;&lt;/font&gt;&lt;/pre&gt;" style="rounded=1;whiteSpace=wrap;html=1;" parent="1" vertex="1">
          <mxGeometry x="758" y="980" width="30" height="15" as="geometry" />
        </mxCell>
        <mxCell id="sX_OkfuKljEF2dyJW8o2-163" value="&lt;pre&gt;&lt;font face=&quot;Helvetica&quot; color=&quot;#666666&quot;&gt;&lt;b&gt;PE3&lt;/b&gt;&lt;/font&gt;&lt;/pre&gt;" style="rounded=1;whiteSpace=wrap;html=1;fillColor=#dae8fc;strokeColor=#6c8ebf;" parent="1" vertex="1">
          <mxGeometry x="830" y="1010" width="50" height="20" as="geometry" />
        </mxCell>
        <mxCell id="sX_OkfuKljEF2dyJW8o2-164" value="&lt;pre&gt;&lt;font face=&quot;Helvetica&quot; style=&quot;color: light-dark(rgb(0, 0, 0), rgb(92, 121, 163));&quot;&gt;&lt;b style=&quot;&quot;&gt;G6&lt;/b&gt;&lt;/font&gt;&lt;/pre&gt;" style="rounded=1;whiteSpace=wrap;html=1;" parent="1" vertex="1">
          <mxGeometry x="750" y="888" width="30" height="15" as="geometry" />
        </mxCell>
        <mxCell id="sX_OkfuKljEF2dyJW8o2-165" value="&lt;pre&gt;&lt;font face=&quot;Helvetica&quot; style=&quot;color: light-dark(rgb(0, 0, 0), rgb(92, 121, 163));&quot;&gt;&lt;b style=&quot;&quot;&gt;G7&lt;/b&gt;&lt;/font&gt;&lt;/pre&gt;" style="rounded=1;whiteSpace=wrap;html=1;" parent="1" vertex="1">
          <mxGeometry x="790" y="888" width="30" height="15" as="geometry" />
        </mxCell>
        <mxCell id="sX_OkfuKljEF2dyJW8o2-166" value="&lt;pre&gt;&lt;font face=&quot;Helvetica&quot; style=&quot;color: light-dark(rgb(0, 0, 0), rgb(92, 121, 163));&quot;&gt;&lt;b style=&quot;&quot;&gt;G7&lt;/b&gt;&lt;/font&gt;&lt;/pre&gt;" style="rounded=1;whiteSpace=wrap;html=1;" parent="1" vertex="1">
          <mxGeometry x="790" y="980" width="30" height="15" as="geometry" />
        </mxCell>
        <mxCell id="sX_OkfuKljEF2dyJW8o2-167" value="&lt;pre&gt;&lt;font face=&quot;Helvetica&quot; style=&quot;color: light-dark(rgb(0, 0, 0), rgb(92, 121, 163));&quot;&gt;&lt;b style=&quot;&quot;&gt;G6&lt;/b&gt;&lt;/font&gt;&lt;/pre&gt;" style="rounded=1;whiteSpace=wrap;html=1;" parent="1" vertex="1">
          <mxGeometry x="408" y="977" width="30" height="15" as="geometry" />
        </mxCell>
        <mxCell id="sX_OkfuKljEF2dyJW8o2-168" value="" style="sketch=0;points=[[0.5,0,0],[1,0.5,0],[0.5,1,0],[0,0.5,0],[0.145,0.145,0],[0.8555,0.145,0],[0.855,0.8555,0],[0.145,0.855,0]];verticalLabelPosition=bottom;html=1;verticalAlign=top;aspect=fixed;align=center;pointerEvents=1;shape=mxgraph.cisco19.rect;prIcon=router;fillColor=#f8cecc;strokeColor=#b85450;" parent="1" vertex="1">
          <mxGeometry x="366" y="1125" width="50" height="50" as="geometry" />
        </mxCell>
        <mxCell id="sX_OkfuKljEF2dyJW8o2-169" value="" style="sketch=0;points=[[0.5,0,0],[1,0.5,0],[0.5,1,0],[0,0.5,0],[0.145,0.145,0],[0.8555,0.145,0],[0.855,0.8555,0],[0.145,0.855,0]];verticalLabelPosition=bottom;html=1;verticalAlign=top;aspect=fixed;align=center;pointerEvents=1;shape=mxgraph.cisco19.rect;prIcon=router;fillColor=#f8cecc;strokeColor=#b85450;" parent="1" vertex="1">
          <mxGeometry x="780" y="1125" width="50" height="50" as="geometry" />
        </mxCell>
        <mxCell id="sX_OkfuKljEF2dyJW8o2-170" value="&lt;pre&gt;&lt;font face=&quot;Helvetica&quot; style=&quot;color: light-dark(rgb(185, 84, 80), rgb(92, 121, 163));&quot;&gt;&lt;b style=&quot;&quot;&gt;DC-12&lt;/b&gt;&lt;/font&gt;&lt;/pre&gt;" style="rounded=1;whiteSpace=wrap;html=1;fillColor=#f8cecc;strokeColor=#b85450;" parent="1" vertex="1">
          <mxGeometry x="366" y="1175" width="50" height="20" as="geometry" />
        </mxCell>
        <mxCell id="sX_OkfuKljEF2dyJW8o2-171" value="&lt;pre&gt;&lt;font face=&quot;Helvetica&quot; style=&quot;color: light-dark(rgb(185, 84, 80), rgb(92, 121, 163));&quot;&gt;&lt;b style=&quot;&quot;&gt;DC-13&lt;/b&gt;&lt;/font&gt;&lt;/pre&gt;" style="rounded=1;whiteSpace=wrap;html=1;fillColor=#f8cecc;strokeColor=#b85450;" parent="1" vertex="1">
          <mxGeometry x="780" y="1175" width="50" height="20" as="geometry" />
        </mxCell>
        <mxCell id="sX_OkfuKljEF2dyJW8o2-172" style="rounded=0;orthogonalLoop=1;jettySize=auto;html=1;exitX=0.5;exitY=0;exitDx=0;exitDy=0;exitPerimeter=0;entryX=0.5;entryY=1;entryDx=0;entryDy=0;entryPerimeter=0;endArrow=none;startFill=0;strokeWidth=2;" parent="1" source="sX_OkfuKljEF2dyJW8o2-168" target="sX_OkfuKljEF2dyJW8o2-132" edge="1">
          <mxGeometry relative="1" as="geometry">
            <mxPoint x="537.09" y="1135" as="sourcePoint" />
            <mxPoint x="537.09" y="1025" as="targetPoint" />
          </mxGeometry>
        </mxCell>
        <mxCell id="sX_OkfuKljEF2dyJW8o2-173" style="rounded=0;orthogonalLoop=1;jettySize=auto;html=1;exitX=0.5;exitY=0;exitDx=0;exitDy=0;exitPerimeter=0;entryX=0.5;entryY=1;entryDx=0;entryDy=0;entryPerimeter=0;endArrow=none;startFill=0;strokeWidth=2;" parent="1" source="sX_OkfuKljEF2dyJW8o2-169" target="sX_OkfuKljEF2dyJW8o2-133" edge="1">
          <mxGeometry relative="1" as="geometry">
            <mxPoint x="780" y="1135" as="sourcePoint" />
            <mxPoint x="780" y="1055" as="targetPoint" />
          </mxGeometry>
        </mxCell>
        <mxCell id="sX_OkfuKljEF2dyJW8o2-174" style="rounded=0;orthogonalLoop=1;jettySize=auto;html=1;exitX=0;exitY=0.5;exitDx=0;exitDy=0;exitPerimeter=0;entryX=1;entryY=0.5;entryDx=0;entryDy=0;entryPerimeter=0;endArrow=none;startFill=0;strokeWidth=2;" parent="1" source="sX_OkfuKljEF2dyJW8o2-169" target="sX_OkfuKljEF2dyJW8o2-168" edge="1">
          <mxGeometry relative="1" as="geometry">
            <mxPoint x="815" y="1135" as="sourcePoint" />
            <mxPoint x="815" y="1055" as="targetPoint" />
          </mxGeometry>
        </mxCell>
        <mxCell id="sX_OkfuKljEF2dyJW8o2-175" value="" style="sketch=0;points=[[0.5,0,0],[1,0.5,0],[0.5,1,0],[0,0.5,0],[0.145,0.145,0],[0.8555,0.145,0],[0.855,0.8555,0],[0.145,0.855,0]];verticalLabelPosition=bottom;html=1;verticalAlign=top;aspect=fixed;align=center;pointerEvents=1;shape=mxgraph.cisco19.rect;prIcon=router;fillColor=#dae8fc;strokeColor=#6c8ebf;" parent="1" vertex="1">
          <mxGeometry x="208" y="1065" width="50" height="50" as="geometry" />
        </mxCell>
        <mxCell id="sX_OkfuKljEF2dyJW8o2-177" style="rounded=0;orthogonalLoop=1;jettySize=auto;html=1;exitX=0;exitY=0.5;exitDx=0;exitDy=0;entryX=1;entryY=0.5;entryDx=0;entryDy=0;entryPerimeter=0;endArrow=none;startFill=0;strokeWidth=2;" parent="1" source="sX_OkfuKljEF2dyJW8o2-182" target="sX_OkfuKljEF2dyJW8o2-175" edge="1">
          <mxGeometry relative="1" as="geometry">
            <mxPoint x="833" y="1048" as="sourcePoint" />
            <mxPoint x="970" y="1120" as="targetPoint" />
          </mxGeometry>
        </mxCell>
        <mxCell id="sX_OkfuKljEF2dyJW8o2-178" value="&lt;pre&gt;&lt;font face=&quot;Helvetica&quot; style=&quot;color: light-dark(rgb(108, 142, 191), rgb(92, 121, 163));&quot;&gt;&lt;b style=&quot;&quot;&gt;EDGE 9&lt;/b&gt;&lt;/font&gt;&lt;/pre&gt;" style="rounded=1;whiteSpace=wrap;html=1;fillColor=#dae8fc;strokeColor=#6c8ebf;" parent="1" vertex="1">
          <mxGeometry x="208" y="1115" width="50" height="20" as="geometry" />
        </mxCell>
        <mxCell id="sX_OkfuKljEF2dyJW8o2-179" value="&lt;pre&gt;&lt;font face=&quot;Helvetica&quot; style=&quot;color: light-dark(rgb(0, 0, 0), rgb(92, 121, 163));&quot;&gt;&lt;b style=&quot;&quot;&gt;G1&lt;/b&gt;&lt;/font&gt;&lt;/pre&gt;" style="rounded=1;whiteSpace=wrap;html=1;" parent="1" vertex="1">
          <mxGeometry x="340" y="1030" width="30" height="15" as="geometry" />
        </mxCell>
        <mxCell id="sX_OkfuKljEF2dyJW8o2-180" value="&lt;pre&gt;&lt;font face=&quot;Helvetica&quot; style=&quot;color: light-dark(rgb(0, 0, 0), rgb(92, 121, 163));&quot;&gt;&lt;b style=&quot;&quot;&gt;G1&lt;/b&gt;&lt;/font&gt;&lt;/pre&gt;" style="rounded=1;whiteSpace=wrap;html=1;" parent="1" vertex="1">
          <mxGeometry x="258" y="1075" width="30" height="15" as="geometry" />
        </mxCell>
        <mxCell id="sX_OkfuKljEF2dyJW8o2-181" value="&lt;pre&gt;&lt;font face=&quot;Helvetica&quot; style=&quot;color: light-dark(rgb(0, 0, 0), rgb(92, 121, 163));&quot;&gt;&lt;b style=&quot;&quot;&gt;G2&lt;/b&gt;&lt;/font&gt;&lt;/pre&gt;" style="rounded=1;whiteSpace=wrap;html=1;" parent="1" vertex="1">
          <mxGeometry x="258" y="1090" width="30" height="15" as="geometry" />
        </mxCell>
        <mxCell id="sX_OkfuKljEF2dyJW8o2-182" value="&lt;pre&gt;&lt;font face=&quot;Helvetica&quot; style=&quot;color: light-dark(rgb(0, 0, 0), rgb(92, 121, 163));&quot;&gt;&lt;b style=&quot;&quot;&gt;G2&lt;/b&gt;&lt;/font&gt;&lt;/pre&gt;" style="rounded=1;whiteSpace=wrap;html=1;" parent="1" vertex="1">
          <mxGeometry x="336" y="1142.5" width="30" height="15" as="geometry" />
        </mxCell>
        <mxCell id="sX_OkfuKljEF2dyJW8o2-183" value="&lt;pre&gt;&lt;font face=&quot;Helvetica&quot; style=&quot;color: light-dark(rgb(0, 0, 0), rgb(92, 121, 163));&quot;&gt;&lt;b style=&quot;&quot;&gt;G2&lt;/b&gt;&lt;/font&gt;&lt;/pre&gt;" style="rounded=1;whiteSpace=wrap;html=1;" parent="1" vertex="1">
          <mxGeometry x="790" y="1045" width="30" height="15" as="geometry" />
        </mxCell>
        <mxCell id="sX_OkfuKljEF2dyJW8o2-184" value="&lt;pre&gt;&lt;font face=&quot;Helvetica&quot; style=&quot;color: light-dark(rgb(0, 0, 0), rgb(92, 121, 163));&quot;&gt;&lt;b style=&quot;&quot;&gt;G1&lt;/b&gt;&lt;/font&gt;&lt;/pre&gt;" style="rounded=1;whiteSpace=wrap;html=1;" parent="1" vertex="1">
          <mxGeometry x="790" y="1110" width="30" height="15" as="geometry" />
        </mxCell>
        <mxCell id="sX_OkfuKljEF2dyJW8o2-185" value="&lt;pre&gt;&lt;font face=&quot;Helvetica&quot; style=&quot;color: light-dark(rgb(0, 0, 0), rgb(92, 121, 163));&quot;&gt;&lt;b style=&quot;&quot;&gt;G4&lt;/b&gt;&lt;/font&gt;&lt;/pre&gt;" style="rounded=1;whiteSpace=wrap;html=1;" parent="1" vertex="1">
          <mxGeometry x="750" y="1142.5" width="30" height="15" as="geometry" />
        </mxCell>
        <mxCell id="sX_OkfuKljEF2dyJW8o2-186" value="&lt;pre&gt;&lt;font face=&quot;Helvetica&quot; style=&quot;color: light-dark(rgb(0, 0, 0), rgb(92, 121, 163));&quot;&gt;&lt;b style=&quot;&quot;&gt;G4&lt;/b&gt;&lt;/font&gt;&lt;/pre&gt;" style="rounded=1;whiteSpace=wrap;html=1;" parent="1" vertex="1">
          <mxGeometry x="416" y="1142.5" width="30" height="15" as="geometry" />
        </mxCell>
        <mxCell id="sX_OkfuKljEF2dyJW8o2-187" value="&lt;pre&gt;&lt;font face=&quot;Helvetica&quot; style=&quot;color: light-dark(rgb(0, 0, 0), rgb(92, 121, 163));&quot;&gt;&lt;b style=&quot;&quot;&gt;G1&lt;/b&gt;&lt;/font&gt;&lt;/pre&gt;" style="rounded=1;whiteSpace=wrap;html=1;" parent="1" vertex="1">
          <mxGeometry x="378" y="1045" width="30" height="15" as="geometry" />
        </mxCell>
        <mxCell id="sX_OkfuKljEF2dyJW8o2-188" value="&lt;pre&gt;&lt;font face=&quot;Helvetica&quot; style=&quot;color: light-dark(rgb(0, 0, 0), rgb(92, 121, 163));&quot;&gt;&lt;b style=&quot;&quot;&gt;G1&lt;/b&gt;&lt;/font&gt;&lt;/pre&gt;" style="rounded=1;whiteSpace=wrap;html=1;" parent="1" vertex="1">
          <mxGeometry x="378" y="1110" width="30" height="15" as="geometry" />
        </mxCell>
        <mxCell id="sX_OkfuKljEF2dyJW8o2-192" value="" style="sketch=0;points=[[0.5,0,0],[1,0.5,0],[0.5,1,0],[0,0.5,0],[0.145,0.145,0],[0.8555,0.145,0],[0.855,0.8555,0],[0.145,0.855,0]];verticalLabelPosition=bottom;html=1;verticalAlign=top;aspect=fixed;align=center;pointerEvents=1;shape=mxgraph.cisco19.rect;prIcon=asr_9000;fillColor=#dae8fc;strokeColor=#6c8ebf;" parent="1" vertex="1">
          <mxGeometry x="320" y="399.5" width="50" height="50" as="geometry" />
        </mxCell>
        <mxCell id="sX_OkfuKljEF2dyJW8o2-194" style="rounded=0;orthogonalLoop=1;jettySize=auto;html=1;exitX=1;exitY=1;exitDx=0;exitDy=0;entryX=0;entryY=0;entryDx=0;entryDy=0;endArrow=none;startFill=0;strokeWidth=2;" parent="1" source="sX_OkfuKljEF2dyJW8o2-140" target="sX_OkfuKljEF2dyJW8o2-145" edge="1">
          <mxGeometry relative="1" as="geometry">
            <mxPoint x="425" y="765" as="sourcePoint" />
            <mxPoint x="803" y="765" as="targetPoint" />
          </mxGeometry>
        </mxCell>
        <mxCell id="sX_OkfuKljEF2dyJW8o2-195" style="rounded=0;orthogonalLoop=1;jettySize=auto;html=1;exitX=1;exitY=0;exitDx=0;exitDy=0;entryX=0;entryY=1;entryDx=0;entryDy=0;endArrow=none;startFill=0;strokeWidth=2;" parent="1" source="sX_OkfuKljEF2dyJW8o2-143" target="sX_OkfuKljEF2dyJW8o2-138" edge="1">
          <mxGeometry relative="1" as="geometry">
            <mxPoint x="436" y="730" as="sourcePoint" />
            <mxPoint x="783" y="830" as="targetPoint" />
          </mxGeometry>
        </mxCell>
        <mxCell id="sX_OkfuKljEF2dyJW8o2-196" value="&lt;pre&gt;&lt;font face=&quot;Helvetica&quot; style=&quot;color: light-dark(rgb(0, 0, 0), rgb(92, 121, 163));&quot;&gt;&lt;b style=&quot;&quot;&gt;BE5&lt;/b&gt;&lt;/font&gt;&lt;/pre&gt;" style="rounded=1;whiteSpace=wrap;html=1;" parent="1" vertex="1">
          <mxGeometry x="450" y="402" width="30" height="15" as="geometry" />
        </mxCell>
        <mxCell id="sX_OkfuKljEF2dyJW8o2-197" value="" style="sketch=0;points=[[0.5,0,0],[1,0.5,0],[0.5,1,0],[0,0.5,0],[0.145,0.145,0],[0.8555,0.145,0],[0.855,0.8555,0],[0.145,0.855,0]];verticalLabelPosition=bottom;html=1;verticalAlign=top;aspect=fixed;align=center;pointerEvents=1;shape=mxgraph.cisco19.rect;prIcon=asr_9000;fillColor=#dae8fc;strokeColor=#6c8ebf;" parent="1" vertex="1">
          <mxGeometry x="319" y="270" width="50" height="50" as="geometry" />
        </mxCell>
        <mxCell id="sX_OkfuKljEF2dyJW8o2-198" value="" style="sketch=0;points=[[0.5,0,0],[1,0.5,0],[0.5,1,0],[0,0.5,0],[0.145,0.145,0],[0.8555,0.145,0],[0.855,0.8555,0],[0.145,0.855,0]];verticalLabelPosition=bottom;html=1;verticalAlign=top;aspect=fixed;align=center;pointerEvents=1;shape=mxgraph.cisco19.rect;prIcon=asr_9000;fillColor=#dae8fc;strokeColor=#6c8ebf;" parent="1" vertex="1">
          <mxGeometry x="799" y="399.5" width="50" height="50" as="geometry" />
        </mxCell>
        <mxCell id="sX_OkfuKljEF2dyJW8o2-201" value="" style="sketch=0;points=[[0.5,0,0],[1,0.5,0],[0.5,1,0],[0,0.5,0],[0.145,0.145,0],[0.8555,0.145,0],[0.855,0.8555,0],[0.145,0.855,0]];verticalLabelPosition=bottom;html=1;verticalAlign=top;aspect=fixed;align=center;pointerEvents=1;shape=mxgraph.cisco19.rect;prIcon=asr_9000;fillColor=#dae8fc;strokeColor=#6c8ebf;" parent="1" vertex="1">
          <mxGeometry x="800" y="270" width="50" height="50" as="geometry" />
        </mxCell>
        <mxCell id="sX_OkfuKljEF2dyJW8o2-207" value="&lt;font style=&quot;font-size: 15px;&quot;&gt;&lt;b&gt;ASN 65001&lt;/b&gt;&lt;/font&gt;" style="rounded=1;whiteSpace=wrap;html=1;fillColor=#FFD4D1;strokeColor=#b85450;" parent="1" vertex="1">
          <mxGeometry x="540" y="610.5" width="80" height="20" as="geometry" />
        </mxCell>
        <mxCell id="sX_OkfuKljEF2dyJW8o2-209" value="&lt;font style=&quot;font-size: 15px;&quot;&gt;&lt;b&gt;ASN 65002&lt;/b&gt;&lt;/font&gt;" style="rounded=1;whiteSpace=wrap;html=1;fillColor=#FFD4D1;strokeColor=#b85450;" parent="1" vertex="1">
          <mxGeometry x="537.5" y="84" width="80" height="20" as="geometry" />
        </mxCell>
        <mxCell id="sX_OkfuKljEF2dyJW8o2-210" value="&lt;pre&gt;&lt;font face=&quot;Helvetica&quot; style=&quot;color: light-dark(rgb(0, 0, 0), rgb(92, 121, 163));&quot;&gt;&lt;b style=&quot;&quot;&gt;G0&lt;/b&gt;&lt;/font&gt;&lt;/pre&gt;" style="rounded=1;whiteSpace=wrap;html=1;" parent="1" vertex="1">
          <mxGeometry x="290" y="418" width="30" height="15" as="geometry" />
        </mxCell>
        <mxCell id="sX_OkfuKljEF2dyJW8o2-211" value="&lt;pre&gt;&lt;font face=&quot;Helvetica&quot; style=&quot;color: light-dark(rgb(0, 0, 0), rgb(92, 121, 163));&quot;&gt;&lt;b style=&quot;&quot;&gt;G0&lt;/b&gt;&lt;/font&gt;&lt;/pre&gt;" style="rounded=1;whiteSpace=wrap;html=1;" parent="1" vertex="1">
          <mxGeometry x="289" y="287.5" width="30" height="15" as="geometry" />
        </mxCell>
        <mxCell id="sX_OkfuKljEF2dyJW8o2-63" value="&lt;pre&gt;&lt;font face=&quot;Helvetica&quot; style=&quot;color: light-dark(rgb(0, 0, 0), rgb(92, 121, 163));&quot;&gt;&lt;b style=&quot;&quot;&gt;BE1&lt;/b&gt;&lt;/font&gt;&lt;/pre&gt;" style="rounded=1;whiteSpace=wrap;html=1;" parent="1" vertex="1">
          <mxGeometry x="690" y="303" width="30" height="15" as="geometry" />
        </mxCell>
        <mxCell id="Q-0WuHjyBMRlQhgBISI1-2" value="&lt;pre&gt;&lt;font face=&quot;Helvetica&quot; style=&quot;color: light-dark(rgb(0, 0, 0), rgb(92, 121, 163));&quot;&gt;&lt;b style=&quot;&quot;&gt;BE2&lt;/b&gt;&lt;/font&gt;&lt;/pre&gt;" style="rounded=1;whiteSpace=wrap;html=1;" parent="1" vertex="1">
          <mxGeometry x="770" y="287.5" width="30" height="15" as="geometry" />
        </mxCell>
        <mxCell id="Q-0WuHjyBMRlQhgBISI1-3" value="&lt;pre&gt;&lt;font face=&quot;Helvetica&quot; style=&quot;color: light-dark(rgb(0, 0, 0), rgb(92, 121, 163));&quot;&gt;&lt;b style=&quot;&quot;&gt;BE6&lt;/b&gt;&lt;/font&gt;&lt;/pre&gt;" style="rounded=1;whiteSpace=wrap;html=1;" parent="1" vertex="1">
          <mxGeometry x="770" y="418" width="30" height="15" as="geometry" />
        </mxCell>
        <mxCell id="Q-0WuHjyBMRlQhgBISI1-4" value="&lt;pre&gt;&lt;font face=&quot;Helvetica&quot; style=&quot;color: light-dark(rgb(0, 0, 0), rgb(92, 121, 163));&quot;&gt;&lt;b style=&quot;&quot;&gt;BE6&lt;/b&gt;&lt;/font&gt;&lt;/pre&gt;" style="rounded=1;whiteSpace=wrap;html=1;" parent="1" vertex="1">
          <mxGeometry x="690" y="417" width="30" height="15" as="geometry" />
        </mxCell>
        <mxCell id="Q-0WuHjyBMRlQhgBISI1-5" value="&lt;pre&gt;&lt;font face=&quot;Helvetica&quot; style=&quot;color: light-dark(rgb(0, 0, 0), rgb(92, 121, 163));&quot;&gt;&lt;b style=&quot;&quot;&gt;BE5&lt;/b&gt;&lt;/font&gt;&lt;/pre&gt;" style="rounded=1;whiteSpace=wrap;html=1;" parent="1" vertex="1">
          <mxGeometry x="770" y="303" width="30" height="15" as="geometry" />
        </mxCell>
        <mxCell id="Q-0WuHjyBMRlQhgBISI1-6" value="&lt;pre&gt;&lt;font face=&quot;Helvetica&quot; style=&quot;color: light-dark(rgb(0, 0, 0), rgb(92, 121, 163));&quot;&gt;&lt;b style=&quot;&quot;&gt;BE5&lt;/b&gt;&lt;/font&gt;&lt;/pre&gt;" style="rounded=1;whiteSpace=wrap;html=1;" parent="1" vertex="1">
          <mxGeometry x="690" y="401" width="30" height="15" as="geometry" />
        </mxCell>
        <mxCell id="Q-0WuHjyBMRlQhgBISI1-7" value="&lt;pre&gt;&lt;font face=&quot;Helvetica&quot; style=&quot;color: light-dark(rgb(0, 0, 0), rgb(92, 121, 163));&quot;&gt;&lt;b style=&quot;&quot;&gt;BE4&lt;/b&gt;&lt;/font&gt;&lt;/pre&gt;" style="rounded=1;whiteSpace=wrap;html=1;" parent="1" vertex="1">
          <mxGeometry x="490" y="350" width="30" height="15" as="geometry" />
        </mxCell>
        <mxCell id="Q-0WuHjyBMRlQhgBISI1-8" value="&lt;pre&gt;&lt;font face=&quot;Helvetica&quot; style=&quot;color: light-dark(rgb(0, 0, 0), rgb(92, 121, 163));&quot;&gt;&lt;b style=&quot;&quot;&gt;G7&lt;/b&gt;&lt;/font&gt;&lt;/pre&gt;" style="rounded=1;whiteSpace=wrap;html=1;" parent="1" vertex="1">
          <mxGeometry x="331" y="235" width="30" height="15" as="geometry" />
        </mxCell>
        <mxCell id="Q-0WuHjyBMRlQhgBISI1-10" style="rounded=0;orthogonalLoop=1;jettySize=auto;html=1;exitX=0.5;exitY=1;exitDx=0;exitDy=0;exitPerimeter=0;entryX=0.5;entryY=0;entryDx=0;entryDy=0;entryPerimeter=0;endArrow=none;startFill=0;strokeWidth=2;" parent="1" source="sX_OkfuKljEF2dyJW8o2-197" target="sX_OkfuKljEF2dyJW8o2-192" edge="1">
          <mxGeometry relative="1" as="geometry">
            <mxPoint x="384.8" y="320" as="sourcePoint" />
            <mxPoint x="384.8" y="400" as="targetPoint" />
          </mxGeometry>
        </mxCell>
        <mxCell id="Q-0WuHjyBMRlQhgBISI1-11" value="&lt;pre&gt;&lt;font face=&quot;Helvetica&quot; style=&quot;color: light-dark(rgb(0, 0, 0), rgb(92, 121, 163));&quot;&gt;&lt;b style=&quot;&quot;&gt;BE3&lt;/b&gt;&lt;/font&gt;&lt;/pre&gt;" style="rounded=1;whiteSpace=wrap;html=1;" parent="1" vertex="1">
          <mxGeometry x="330" y="350" width="30" height="15" as="geometry" />
        </mxCell>
        <mxCell id="Q-0WuHjyBMRlQhgBISI1-13" value="&lt;pre&gt;&lt;font face=&quot;Helvetica&quot; style=&quot;color: light-dark(rgb(0, 0, 0), rgb(92, 121, 163));&quot;&gt;&lt;b style=&quot;&quot;&gt;G8&lt;/b&gt;&lt;/font&gt;&lt;/pre&gt;" style="rounded=1;whiteSpace=wrap;html=1;" parent="1" vertex="1">
          <mxGeometry x="809" y="235" width="30" height="15" as="geometry" />
        </mxCell>
        <mxCell id="Q-0WuHjyBMRlQhgBISI1-14" value="&lt;pre&gt;&lt;font face=&quot;Helvetica&quot; style=&quot;color: light-dark(rgb(0, 0, 0), rgb(92, 121, 163));&quot;&gt;&lt;b style=&quot;&quot;&gt;G7&lt;/b&gt;&lt;/font&gt;&lt;/pre&gt;" style="rounded=1;whiteSpace=wrap;html=1;" parent="1" vertex="1">
          <mxGeometry x="522.5" y="148.5" width="30" height="15" as="geometry" />
        </mxCell>
        <mxCell id="Q-0WuHjyBMRlQhgBISI1-15" value="&lt;pre&gt;&lt;font face=&quot;Helvetica&quot; style=&quot;color: light-dark(rgb(0, 0, 0), rgb(92, 121, 163));&quot;&gt;&lt;b style=&quot;&quot;&gt;G8&lt;/b&gt;&lt;/font&gt;&lt;/pre&gt;" style="rounded=1;whiteSpace=wrap;html=1;" parent="1" vertex="1">
          <mxGeometry x="602.5" y="148.5" width="30" height="15" as="geometry" />
        </mxCell>
        <mxCell id="Q-0WuHjyBMRlQhgBISI1-16" value="&lt;pre&gt;&lt;font face=&quot;Helvetica&quot; style=&quot;color: light-dark(rgb(0, 0, 0), rgb(92, 121, 163));&quot;&gt;&lt;b style=&quot;&quot;&gt;G7&lt;/b&gt;&lt;/font&gt;&lt;/pre&gt;" style="rounded=1;whiteSpace=wrap;html=1;" parent="1" vertex="1">
          <mxGeometry x="331" y="470" width="30" height="15" as="geometry" />
        </mxCell>
        <mxCell id="Q-0WuHjyBMRlQhgBISI1-17" value="&lt;pre&gt;&lt;font face=&quot;Helvetica&quot; style=&quot;color: light-dark(rgb(0, 0, 0), rgb(92, 121, 163));&quot;&gt;&lt;b style=&quot;&quot;&gt;G7&lt;/b&gt;&lt;/font&gt;&lt;/pre&gt;" style="rounded=1;whiteSpace=wrap;html=1;" parent="1" vertex="1">
          <mxGeometry x="522" y="552.5" width="30" height="15" as="geometry" />
        </mxCell>
        <mxCell id="Q-0WuHjyBMRlQhgBISI1-18" value="&lt;pre&gt;&lt;font face=&quot;Helvetica&quot; style=&quot;color: light-dark(rgb(0, 0, 0), rgb(92, 121, 163));&quot;&gt;&lt;b style=&quot;&quot;&gt;G8&lt;/b&gt;&lt;/font&gt;&lt;/pre&gt;" style="rounded=1;whiteSpace=wrap;html=1;" parent="1" vertex="1">
          <mxGeometry x="602.5" y="552.5" width="30" height="15" as="geometry" />
        </mxCell>
        <mxCell id="Q-0WuHjyBMRlQhgBISI1-19" value="&lt;pre&gt;&lt;font face=&quot;Helvetica&quot; style=&quot;color: light-dark(rgb(0, 0, 0), rgb(92, 121, 163));&quot;&gt;&lt;b style=&quot;&quot;&gt;G8&lt;/b&gt;&lt;/font&gt;&lt;/pre&gt;" style="rounded=1;whiteSpace=wrap;html=1;" parent="1" vertex="1">
          <mxGeometry x="809" y="466" width="30" height="15" as="geometry" />
        </mxCell>
        <mxCell id="Q-0WuHjyBMRlQhgBISI1-20" value="&lt;pre&gt;&lt;font face=&quot;Helvetica&quot; style=&quot;color: light-dark(rgb(108, 142, 191), rgb(92, 121, 163));&quot;&gt;&lt;b style=&quot;&quot;&gt;EDGE 20&lt;/b&gt;&lt;/font&gt;&lt;/pre&gt;" style="rounded=1;whiteSpace=wrap;html=1;fillColor=#dae8fc;strokeColor=#6c8ebf;" parent="1" vertex="1">
          <mxGeometry x="795.5" y="545" width="57" height="20" as="geometry" />
        </mxCell>
        <mxCell id="sX_OkfuKljEF2dyJW8o2-15" value="" style="sketch=0;points=[[0.5,0,0],[1,0.5,0],[0.5,1,0],[0,0.5,0],[0.145,0.145,0],[0.8555,0.145,0],[0.855,0.8555,0],[0.145,0.855,0]];verticalLabelPosition=bottom;html=1;verticalAlign=top;aspect=fixed;align=center;pointerEvents=1;shape=mxgraph.cisco19.rect;prIcon=router;fillColor=#dae8fc;strokeColor=#6c8ebf;" parent="1" vertex="1">
          <mxGeometry x="799" y="498" width="50" height="50" as="geometry" />
        </mxCell>
        <mxCell id="Q-0WuHjyBMRlQhgBISI1-21" value="&lt;pre&gt;&lt;font face=&quot;Helvetica&quot; style=&quot;color: light-dark(rgb(0, 0, 0), rgb(92, 121, 163));&quot;&gt;&lt;b style=&quot;&quot;&gt;G7&lt;/b&gt;&lt;/font&gt;&lt;/pre&gt;" style="rounded=1;whiteSpace=wrap;html=1;" parent="1" vertex="1">
          <mxGeometry x="690" y="433" width="30" height="15" as="geometry" />
        </mxCell>
        <mxCell id="Q-0WuHjyBMRlQhgBISI1-22" value="" style="rounded=0;orthogonalLoop=1;jettySize=auto;html=1;entryX=1;entryY=0.5;entryDx=0;entryDy=0;endArrow=none;startFill=0;strokeWidth=2;exitX=0.5;exitY=0;exitDx=0;exitDy=0;" parent="1" source="Q-0WuHjyBMRlQhgBISI1-23" target="Q-0WuHjyBMRlQhgBISI1-21" edge="1">
          <mxGeometry relative="1" as="geometry">
            <mxPoint x="770" y="540" as="sourcePoint" />
            <mxPoint x="730" y="435" as="targetPoint" />
          </mxGeometry>
        </mxCell>
        <mxCell id="Q-0WuHjyBMRlQhgBISI1-23" value="&lt;pre&gt;&lt;font face=&quot;Helvetica&quot; style=&quot;color: light-dark(rgb(0, 0, 0), rgb(92, 121, 163));&quot;&gt;&lt;b style=&quot;&quot;&gt;G5&lt;/b&gt;&lt;/font&gt;&lt;/pre&gt;" style="rounded=1;whiteSpace=wrap;html=1;" parent="1" vertex="1">
          <mxGeometry x="770" y="515" width="30" height="15" as="geometry" />
        </mxCell>
        <mxCell id="Q-0WuHjyBMRlQhgBISI1-24" value="&lt;pre&gt;&lt;font face=&quot;Helvetica&quot; style=&quot;color: light-dark(rgb(0, 0, 0), rgb(92, 121, 163));&quot;&gt;&lt;b style=&quot;&quot;&gt;G3&lt;/b&gt;&lt;/font&gt;&lt;/pre&gt;" style="rounded=1;whiteSpace=wrap;html=1;" parent="1" vertex="1">
          <mxGeometry x="850" y="517.5" width="30" height="15" as="geometry" />
        </mxCell>
        <mxCell id="Q-0WuHjyBMRlQhgBISI1-30" value="" style="rounded=0;orthogonalLoop=1;jettySize=auto;html=1;entryX=1;entryY=0.5;entryDx=0;entryDy=0;endArrow=none;startFill=0;strokeWidth=2;exitX=1;exitY=0.5;exitDx=0;exitDy=0;edgeStyle=orthogonalEdgeStyle;" parent="1" source="sX_OkfuKljEF2dyJW8o2-118" target="Q-0WuHjyBMRlQhgBISI1-24" edge="1">
          <mxGeometry relative="1" as="geometry">
            <mxPoint x="995" y="524" as="sourcePoint" />
            <mxPoint x="930" y="450" as="targetPoint" />
            <Array as="points">
              <mxPoint x="910" y="678" />
              <mxPoint x="910" y="525" />
            </Array>
          </mxGeometry>
        </mxCell>
        <mxCell id="Q-0WuHjyBMRlQhgBISI1-31" value="" style="rounded=0;orthogonalLoop=1;jettySize=auto;html=1;entryX=1;entryY=0.5;entryDx=0;entryDy=0;endArrow=none;startFill=0;strokeWidth=2;exitX=1;exitY=0.5;exitDx=0;exitDy=0;edgeStyle=orthogonalEdgeStyle;" parent="1" source="sX_OkfuKljEF2dyJW8o2-123" target="sX_OkfuKljEF2dyJW8o2-121" edge="1">
          <mxGeometry relative="1" as="geometry">
            <mxPoint x="920" y="635" as="sourcePoint" />
            <mxPoint x="940" y="502" as="targetPoint" />
            <Array as="points">
              <mxPoint x="930" y="694" />
              <mxPoint x="930" y="426" />
            </Array>
          </mxGeometry>
        </mxCell>
        <mxCell id="Q-0WuHjyBMRlQhgBISI1-32" value="" style="rounded=0;orthogonalLoop=1;jettySize=auto;html=1;entryX=1;entryY=0.5;entryDx=0;entryDy=0;endArrow=none;startFill=0;strokeWidth=2;exitX=1;exitY=0.5;exitDx=0;exitDy=0;edgeStyle=orthogonalEdgeStyle;fillColor=#ffe6cc;strokeColor=#000000;" parent="1" source="sX_OkfuKljEF2dyJW8o2-119" target="sX_OkfuKljEF2dyJW8o2-120" edge="1">
          <mxGeometry relative="1" as="geometry">
            <mxPoint x="920" y="673" as="sourcePoint" />
            <mxPoint x="940" y="425" as="targetPoint" />
            <Array as="points">
              <mxPoint x="950" y="711" />
              <mxPoint x="950" y="295" />
            </Array>
          </mxGeometry>
        </mxCell>
        <mxCell id="Q-0WuHjyBMRlQhgBISI1-33" value="&lt;pre&gt;&lt;font face=&quot;Helvetica&quot; style=&quot;color: light-dark(rgb(0, 0, 0), rgb(92, 121, 163));&quot;&gt;&lt;b style=&quot;&quot;&gt;G1&lt;/b&gt;&lt;/font&gt;&lt;/pre&gt;" style="rounded=1;whiteSpace=wrap;html=1;" parent="1" vertex="1">
          <mxGeometry x="336" y="697.25" width="30" height="15" as="geometry" />
        </mxCell>
        <mxCell id="Q-0WuHjyBMRlQhgBISI1-34" value="&lt;pre&gt;&lt;font face=&quot;Helvetica&quot; style=&quot;color: light-dark(rgb(0, 0, 0), rgb(92, 121, 163));&quot;&gt;&lt;b style=&quot;&quot;&gt;G2&lt;/b&gt;&lt;/font&gt;&lt;/pre&gt;" style="rounded=1;whiteSpace=wrap;html=1;" parent="1" vertex="1">
          <mxGeometry x="336" y="680.75" width="30" height="15" as="geometry" />
        </mxCell>
        <mxCell id="Q-0WuHjyBMRlQhgBISI1-35" value="" style="rounded=0;orthogonalLoop=1;jettySize=auto;html=1;entryX=0;entryY=0.5;entryDx=0;entryDy=0;endArrow=none;startFill=0;strokeWidth=2;exitX=0;exitY=0.5;exitDx=0;exitDy=0;edgeStyle=orthogonalEdgeStyle;" parent="1" source="Q-0WuHjyBMRlQhgBISI1-34" target="sX_OkfuKljEF2dyJW8o2-210" edge="1">
          <mxGeometry relative="1" as="geometry">
            <mxPoint x="230" y="591.5" as="sourcePoint" />
            <mxPoint x="250" y="458.5" as="targetPoint" />
          </mxGeometry>
        </mxCell>
        <mxCell id="Q-0WuHjyBMRlQhgBISI1-36" value="" style="rounded=0;orthogonalLoop=1;jettySize=auto;html=1;entryX=0;entryY=0.5;entryDx=0;entryDy=0;endArrow=none;startFill=0;strokeWidth=2;exitX=0;exitY=0.5;exitDx=0;exitDy=0;edgeStyle=orthogonalEdgeStyle;fillColor=#ffe6cc;strokeColor=#000000;" parent="1" source="Q-0WuHjyBMRlQhgBISI1-33" target="sX_OkfuKljEF2dyJW8o2-211" edge="1">
          <mxGeometry relative="1" as="geometry">
            <mxPoint x="288" y="669" as="sourcePoint" />
            <mxPoint x="242" y="446" as="targetPoint" />
            <Array as="points">
              <mxPoint x="250" y="705" />
              <mxPoint x="250" y="295" />
            </Array>
          </mxGeometry>
        </mxCell>
        <mxCell id="Q-0WuHjyBMRlQhgBISI1-38" value="&lt;font style=&quot;font-size: 15px;&quot;&gt;&lt;b&gt;ASN 100&lt;/b&gt;&lt;/font&gt;" style="rounded=1;whiteSpace=wrap;html=1;fillColor=#E0D4B4;strokeColor=#d6b656;" parent="1" vertex="1">
          <mxGeometry x="195.5" y="1042.5" width="75" height="20" as="geometry" />
        </mxCell>
        <mxCell id="Q-0WuHjyBMRlQhgBISI1-43" value="&lt;font style=&quot;font-size: 15px;&quot;&gt;&lt;b&gt;ASN 222&lt;/b&gt;&lt;/font&gt;" style="rounded=1;whiteSpace=wrap;html=1;fillColor=#f5f5f5;strokeColor=#666666;fontColor=#333333;" parent="1" vertex="1">
          <mxGeometry x="560" y="644.25" width="75" height="20" as="geometry" />
        </mxCell>
        <mxCell id="Q-0WuHjyBMRlQhgBISI1-44" value="" style="sketch=0;points=[[0.5,0,0],[1,0.5,0],[0.5,1,0],[0,0.5,0],[0.145,0.145,0],[0.8555,0.145,0],[0.855,0.8555,0],[0.145,0.855,0]];verticalLabelPosition=bottom;html=1;verticalAlign=top;aspect=fixed;align=center;pointerEvents=1;shape=mxgraph.cisco19.rect;prIcon=asr_9000;fillColor=#f8cecc;strokeColor=#b85450;" parent="1" vertex="1">
          <mxGeometry x="552.5" y="535" width="50" height="50" as="geometry" />
        </mxCell>
        <mxCell id="Q-0WuHjyBMRlQhgBISI1-45" value="" style="sketch=0;points=[[0.5,0,0],[1,0.5,0],[0.5,1,0],[0,0.5,0],[0.145,0.145,0],[0.8555,0.145,0],[0.855,0.8555,0],[0.145,0.855,0]];verticalLabelPosition=bottom;html=1;verticalAlign=top;aspect=fixed;align=center;pointerEvents=1;shape=mxgraph.cisco19.rect;prIcon=asr_9000;fillColor=#f8cecc;strokeColor=#b85450;" parent="1" vertex="1">
          <mxGeometry x="552.5" y="131" width="50" height="50" as="geometry" />
        </mxCell>
        <mxCell id="Q-0WuHjyBMRlQhgBISI1-46" value="&lt;font style=&quot;font-size: 15px;&quot;&gt;&lt;b&gt;ASN 65001&lt;/b&gt;&lt;/font&gt;" style="rounded=1;whiteSpace=wrap;html=1;fillColor=#FFD4D1;strokeColor=#b85450;" parent="1" vertex="1">
          <mxGeometry x="769" y="1206" width="80" height="20" as="geometry" />
        </mxCell>
        <mxCell id="Q-0WuHjyBMRlQhgBISI1-47" value="&lt;font style=&quot;font-size: 15px;&quot;&gt;&lt;b&gt;ASN 65002&lt;/b&gt;&lt;/font&gt;" style="rounded=1;whiteSpace=wrap;html=1;fillColor=#FFD4D1;strokeColor=#b85450;" parent="1" vertex="1">
          <mxGeometry x="351" y="1206" width="80" height="20" as="geometry" />
        </mxCell>
        <mxCell id="pdRvCPXQ8JdgAiteIWcN-2" value="&lt;pre&gt;&lt;font face=&quot;Helvetica&quot; style=&quot;color: light-dark(rgb(0, 0, 0), rgb(92, 121, 163));&quot;&gt;&lt;b style=&quot;&quot;&gt;BE11&lt;/b&gt;&lt;/font&gt;&lt;/pre&gt;" style="rounded=1;whiteSpace=wrap;html=1;" parent="1" vertex="1">
          <mxGeometry x="326.5" y="470" width="39" height="15" as="geometry" />
        </mxCell>
        <mxCell id="pdRvCPXQ8JdgAiteIWcN-3" value="&lt;pre&gt;&lt;font face=&quot;Helvetica&quot; style=&quot;color: light-dark(rgb(0, 0, 0), rgb(92, 121, 163));&quot;&gt;&lt;b style=&quot;&quot;&gt;BE11&lt;/b&gt;&lt;/font&gt;&lt;/pre&gt;" style="rounded=1;whiteSpace=wrap;html=1;" parent="1" vertex="1">
          <mxGeometry x="805.5" y="466" width="39" height="15" as="geometry" />
        </mxCell>
        <mxCell id="BTxtrkEBE4gKBHOqM29C-1" value="&lt;pre&gt;&lt;font face=&quot;Helvetica&quot; style=&quot;color: light-dark(rgb(0, 0, 0), rgb(92, 121, 163));&quot;&gt;&lt;b style=&quot;&quot;&gt;BE10&lt;/b&gt;&lt;/font&gt;&lt;/pre&gt;" style="rounded=1;whiteSpace=wrap;html=1;" parent="1" vertex="1">
          <mxGeometry x="327" y="235" width="39" height="15" as="geometry" />
        </mxCell>
        <mxCell id="BTxtrkEBE4gKBHOqM29C-2" value="&lt;pre&gt;&lt;font face=&quot;Helvetica&quot; style=&quot;color: light-dark(rgb(0, 0, 0), rgb(92, 121, 163));&quot;&gt;&lt;b style=&quot;&quot;&gt;BE10&lt;/b&gt;&lt;/font&gt;&lt;/pre&gt;" style="rounded=1;whiteSpace=wrap;html=1;" parent="1" vertex="1">
          <mxGeometry x="804.5" y="235" width="39" height="15" as="geometry" />
        </mxCell>
        <mxCell id="edUmir_fslStHaJvEzWF-1" style="rounded=0;orthogonalLoop=1;jettySize=auto;html=1;exitX=0.5;exitY=0;exitDx=0;exitDy=0;exitPerimeter=0;entryX=0.5;entryY=0;entryDx=0;entryDy=0;entryPerimeter=0;endArrow=none;startFill=0;strokeWidth=2;" edge="1" parent="1">
          <mxGeometry relative="1" as="geometry">
            <mxPoint x="667.5" y="285" as="sourcePoint" />
            <mxPoint x="507.5" y="285" as="targetPoint" />
          </mxGeometry>
        </mxCell>
        <mxCell id="edUmir_fslStHaJvEzWF-2" style="rounded=0;orthogonalLoop=1;jettySize=auto;html=1;exitX=0.5;exitY=0;exitDx=0;exitDy=0;exitPerimeter=0;entryX=0.5;entryY=0;entryDx=0;entryDy=0;entryPerimeter=0;endArrow=none;startFill=0;strokeWidth=2;" edge="1" parent="1">
          <mxGeometry relative="1" as="geometry">
            <mxPoint x="670" y="296.86" as="sourcePoint" />
            <mxPoint x="510" y="296.86" as="targetPoint" />
          </mxGeometry>
        </mxCell>
        <mxCell id="edUmir_fslStHaJvEzWF-3" style="rounded=0;orthogonalLoop=1;jettySize=auto;html=1;exitX=0.5;exitY=0;exitDx=0;exitDy=0;exitPerimeter=0;entryX=0.5;entryY=0;entryDx=0;entryDy=0;entryPerimeter=0;endArrow=none;startFill=0;strokeWidth=2;" edge="1" parent="1">
          <mxGeometry relative="1" as="geometry">
            <mxPoint x="665" y="307.71" as="sourcePoint" />
            <mxPoint x="505" y="307.71" as="targetPoint" />
          </mxGeometry>
        </mxCell>
        <mxCell id="sX_OkfuKljEF2dyJW8o2-202" value="" style="sketch=0;points=[[0.5,0,0],[1,0.5,0],[0.5,1,0],[0,0.5,0],[0.145,0.145,0],[0.8555,0.145,0],[0.855,0.8555,0],[0.145,0.855,0]];verticalLabelPosition=bottom;html=1;verticalAlign=top;aspect=fixed;align=center;pointerEvents=1;shape=mxgraph.cisco19.rect;prIcon=asr_9000;fillColor=#d5e8d4;strokeColor=#82b366;" parent="1" vertex="1">
          <mxGeometry x="480" y="270" width="50" height="50" as="geometry" />
        </mxCell>
        <mxCell id="sX_OkfuKljEF2dyJW8o2-203" value="" style="sketch=0;points=[[0.5,0,0],[1,0.5,0],[0.5,1,0],[0,0.5,0],[0.145,0.145,0],[0.8555,0.145,0],[0.855,0.8555,0],[0.145,0.855,0]];verticalLabelPosition=bottom;html=1;verticalAlign=top;aspect=fixed;align=center;pointerEvents=1;shape=mxgraph.cisco19.rect;prIcon=asr_9000;fillColor=#d5e8d4;strokeColor=#82b366;" parent="1" vertex="1">
          <mxGeometry x="640" y="270" width="50" height="50" as="geometry" />
        </mxCell>
        <mxCell id="edUmir_fslStHaJvEzWF-4" value="&lt;pre&gt;&lt;font face=&quot;Helvetica&quot; style=&quot;color: light-dark(rgb(0, 0, 0), rgb(92, 121, 163));&quot;&gt;&lt;b style=&quot;&quot;&gt;BE8&lt;/b&gt;&lt;/font&gt;&lt;/pre&gt;" style="rounded=1;whiteSpace=wrap;html=1;" vertex="1" parent="1">
          <mxGeometry x="560" y="277" width="50" height="15" as="geometry" />
        </mxCell>
        <mxCell id="edUmir_fslStHaJvEzWF-5" value="&lt;pre&gt;&lt;font face=&quot;Helvetica&quot; style=&quot;color: light-dark(rgb(0, 0, 0), rgb(92, 121, 163));&quot;&gt;&lt;b style=&quot;&quot;&gt;BE9&lt;/b&gt;&lt;/font&gt;&lt;/pre&gt;" style="rounded=1;whiteSpace=wrap;html=1;" vertex="1" parent="1">
          <mxGeometry x="560" y="291" width="50" height="15" as="geometry" />
        </mxCell>
        <mxCell id="edUmir_fslStHaJvEzWF-6" value="&lt;pre&gt;&lt;font face=&quot;Helvetica&quot; style=&quot;color: light-dark(rgb(0, 0, 0), rgb(92, 121, 163));&quot;&gt;&lt;b style=&quot;&quot;&gt;BE1000&lt;/b&gt;&lt;/font&gt;&lt;/pre&gt;" style="rounded=1;whiteSpace=wrap;html=1;" vertex="1" parent="1">
          <mxGeometry x="560" y="306" width="50" height="15" as="geometry" />
        </mxCell>
        <mxCell id="edUmir_fslStHaJvEzWF-8" style="rounded=0;orthogonalLoop=1;jettySize=auto;html=1;exitX=0.5;exitY=0;exitDx=0;exitDy=0;exitPerimeter=0;entryX=0.5;entryY=0;entryDx=0;entryDy=0;entryPerimeter=0;endArrow=none;startFill=0;strokeWidth=2;" edge="1" parent="1">
          <mxGeometry relative="1" as="geometry">
            <mxPoint x="667.5" y="411.5" as="sourcePoint" />
            <mxPoint x="507.5" y="411.5" as="targetPoint" />
          </mxGeometry>
        </mxCell>
        <mxCell id="edUmir_fslStHaJvEzWF-9" value="&lt;pre&gt;&lt;font face=&quot;Helvetica&quot; style=&quot;color: light-dark(rgb(0, 0, 0), rgb(92, 121, 163));&quot;&gt;&lt;b style=&quot;&quot;&gt;BE100&lt;/b&gt;&lt;/font&gt;&lt;/pre&gt;" style="rounded=1;whiteSpace=wrap;html=1;" vertex="1" parent="1">
          <mxGeometry x="562.5" y="399.5" width="50" height="15" as="geometry" />
        </mxCell>
        <mxCell id="edUmir_fslStHaJvEzWF-10" style="rounded=0;orthogonalLoop=1;jettySize=auto;html=1;exitX=0.5;exitY=0;exitDx=0;exitDy=0;exitPerimeter=0;entryX=0.5;entryY=0;entryDx=0;entryDy=0;entryPerimeter=0;endArrow=none;startFill=0;strokeWidth=2;" edge="1" parent="1">
          <mxGeometry relative="1" as="geometry">
            <mxPoint x="670" y="422.5" as="sourcePoint" />
            <mxPoint x="510" y="422.5" as="targetPoint" />
          </mxGeometry>
        </mxCell>
        <mxCell id="edUmir_fslStHaJvEzWF-11" style="rounded=0;orthogonalLoop=1;jettySize=auto;html=1;exitX=0.5;exitY=0;exitDx=0;exitDy=0;exitPerimeter=0;entryX=0.5;entryY=0;entryDx=0;entryDy=0;entryPerimeter=0;endArrow=none;startFill=0;strokeWidth=2;" edge="1" parent="1">
          <mxGeometry relative="1" as="geometry">
            <mxPoint x="672.5" y="434.36" as="sourcePoint" />
            <mxPoint x="512.5" y="434.36" as="targetPoint" />
          </mxGeometry>
        </mxCell>
        <mxCell id="edUmir_fslStHaJvEzWF-12" style="rounded=0;orthogonalLoop=1;jettySize=auto;html=1;exitX=0.5;exitY=0;exitDx=0;exitDy=0;exitPerimeter=0;entryX=0.5;entryY=0;entryDx=0;entryDy=0;entryPerimeter=0;endArrow=none;startFill=0;strokeWidth=2;" edge="1" parent="1">
          <mxGeometry relative="1" as="geometry">
            <mxPoint x="667.5" y="445.21" as="sourcePoint" />
            <mxPoint x="507.5" y="445.21" as="targetPoint" />
          </mxGeometry>
        </mxCell>
        <mxCell id="edUmir_fslStHaJvEzWF-13" value="&lt;pre&gt;&lt;font face=&quot;Helvetica&quot; style=&quot;color: light-dark(rgb(0, 0, 0), rgb(92, 121, 163));&quot;&gt;&lt;b style=&quot;&quot;&gt;BE8&lt;/b&gt;&lt;/font&gt;&lt;/pre&gt;" style="rounded=1;whiteSpace=wrap;html=1;" vertex="1" parent="1">
          <mxGeometry x="562.5" y="414.5" width="50" height="15" as="geometry" />
        </mxCell>
        <mxCell id="edUmir_fslStHaJvEzWF-14" value="&lt;pre&gt;&lt;font face=&quot;Helvetica&quot; style=&quot;color: light-dark(rgb(0, 0, 0), rgb(92, 121, 163));&quot;&gt;&lt;b style=&quot;&quot;&gt;BE9&lt;/b&gt;&lt;/font&gt;&lt;/pre&gt;" style="rounded=1;whiteSpace=wrap;html=1;" vertex="1" parent="1">
          <mxGeometry x="562.5" y="428.5" width="50" height="15" as="geometry" />
        </mxCell>
        <mxCell id="edUmir_fslStHaJvEzWF-15" value="&lt;pre&gt;&lt;font face=&quot;Helvetica&quot; style=&quot;color: light-dark(rgb(0, 0, 0), rgb(92, 121, 163));&quot;&gt;&lt;b style=&quot;&quot;&gt;BE1000&lt;/b&gt;&lt;/font&gt;&lt;/pre&gt;" style="rounded=1;whiteSpace=wrap;html=1;" vertex="1" parent="1">
          <mxGeometry x="562.5" y="443.5" width="50" height="15" as="geometry" />
        </mxCell>
        <mxCell id="sX_OkfuKljEF2dyJW8o2-204" value="" style="sketch=0;points=[[0.5,0,0],[1,0.5,0],[0.5,1,0],[0,0.5,0],[0.145,0.145,0],[0.8555,0.145,0],[0.855,0.8555,0],[0.145,0.855,0]];verticalLabelPosition=bottom;html=1;verticalAlign=top;aspect=fixed;align=center;pointerEvents=1;shape=mxgraph.cisco19.rect;prIcon=asr_9000;fillColor=#d5e8d4;strokeColor=#82b366;" parent="1" vertex="1">
          <mxGeometry x="640" y="400" width="50" height="50" as="geometry" />
        </mxCell>
        <mxCell id="sX_OkfuKljEF2dyJW8o2-205" value="" style="sketch=0;points=[[0.5,0,0],[1,0.5,0],[0.5,1,0],[0,0.5,0],[0.145,0.145,0],[0.8555,0.145,0],[0.855,0.8555,0],[0.145,0.855,0]];verticalLabelPosition=bottom;html=1;verticalAlign=top;aspect=fixed;align=center;pointerEvents=1;shape=mxgraph.cisco19.rect;prIcon=asr_9000;fillColor=#d5e8d4;strokeColor=#82b366;" parent="1" vertex="1">
          <mxGeometry x="480" y="399.5" width="50" height="50" as="geometry" />
        </mxCell>
      </root>
    </mxGraphModel>
  </diagram>
</mxfile>
